<?xml version="1.0" encoding="UTF-8"?>
<svg id="Layer_1" xmlns="http://www.w3.org/2000/svg" version="1.1" viewBox="0 0 550 135">
  <!-- Generator: Adobe Illustrator 29.0.0, SVG Export Plug-In . SVG Version: 2.1.0 Build 186)  -->
  <defs>
    <style>
      .st0 {
        fill: #0082ff;
      }
    </style>
  </defs>
  <path class="st0" d="M301,31.3c-3.1-2.3-6.8-3.9-11.2-5-4.4-1.1-9.2-1.6-14.5-1.6s-7.7.3-11.6.8c-3.9.6-7.4,1.4-10.4,2.5-4.7,1.9-7.1,5.2-7.1,9.7s.4,3.8,1.3,5.5c.9,1.7,1.9,2.9,3.2,3.8,3-1.2,6.3-2.3,10.1-3.2,3.7-.9,7.6-1.4,11.5-1.4s8.9.8,11.5,2.3c2.7,1.5,4,4,4,7.2v1.7l-20.5,2.2c-8.7.9-15.2,3.2-19.4,6.9-4.2,3.7-6.3,9.1-6.3,16.2s3.1,14.5,9.4,18.5c6.3,4.1,14.7,6.1,25.2,6.1s11.1-.5,15.7-1.5c4.6-1,8.5-2.5,11.7-4.5,1.9-1.1,3.6-2.5,5-4.1,1.4-1.6,2.1-3.7,2.1-6.4v-34.8c0-4.7-.8-8.8-2.5-12.3-1.7-3.5-4.1-6.4-7.2-8.6Z"/>
</svg>