<?xml version="1.0" encoding="UTF-8"?>
<svg id="Layer_1" xmlns="http://www.w3.org/2000/svg" version="1.1" viewBox="0 0 550 135">
  <!-- Generator: Adobe Illustrator 29.0.0, SVG Export Plug-In . SVG Version: 2.1.0 Build 186)  -->
  <defs>
    <style>
      .st0 {
        fill: #0082ff;
      }
    </style>
  </defs>
  <path class="st0" d="M468,33.8c-3.1-2.9-6.9-5.1-11.2-6.7-4.4-1.6-9.2-2.4-14.4-2.4s-9.5.7-14.1,2.2c-4.6,1.5-8.6,3.8-12.2,7-3.5,3.2-6.4,7.2-8.5,12-2.1,4.8-3.2,10.5-3.2,17.1s1.1,12.7,3.2,17.7c2.1,5,5,9.2,8.7,12.5,3.7,3.3,8.1,5.8,13.2,7.5,5.1,1.7,10.7,2.5,16.8,2.5s7.9-.3,11.3-.8c3.4-.6,6.4-1.4,8.9-2.6,2.5-1.2,4.5-2.6,5.9-4.4,1.4-1.7,2.2-3.8,2.2-6.2s-.5-3.7-1.5-5.4c-1-1.6-2.3-3-3.8-4-2.4,1.4-5.4,2.7-9.2,3.9-3.8,1.2-7.8,1.8-12.2,1.8s-8.9-.9-12.5-2.7c-3.6-1.8-6.1-4.8-7.5-9.2l40-6c3.2-.5,5.6-1.6,7.4-3.2,1.7-1.6,2.6-4.1,2.6-7.4,0-4.7-.9-9.1-2.6-13.1-1.7-4-4.2-7.4-7.3-10.3Z"/>
</svg>