<?xml version="1.0" encoding="UTF-8"?>
<svg id="Layer_1" xmlns="http://www.w3.org/2000/svg" version="1.1" viewBox="0 0 550 135">
  <!-- Generator: Adobe Illustrator 29.0.0, SVG Export Plug-In . SVG Version: 2.1.0 Build 186)  -->
  <defs>
    <style>
      .st0 {
        fill: #0082ff;
      }
    </style>
  </defs>
  <path class="st0" d="M164.4,14.2c-7.2-5.9-17.7-8.8-31.7-8.8s-4,0-6.2.2c-2.2.1-4.4.3-6.6.6-2.2.3-4.4.7-6.5,1.1-2.1.4-4,.9-5.6,1.5-2.1.6-3.6,1.5-4.7,2.6-1.1,1.1-1.6,2.7-1.6,4.8v74.6c0,4.3.9,7.3,2.8,8.9,1.9,1.6,5.3,2.5,10.1,2.5s4.4-.1,6.5-.4c2.1-.3,3.6-.5,4.8-.8v-29.7h10.2c6.2,0,11.7-.8,16.5-2.3,4.9-1.5,9-3.7,12.4-6.6,3.4-2.9,6-6.3,7.8-10.4,1.8-4.1,2.7-8.5,2.7-13.5,0-10.3-3.6-18.3-10.8-24.2Z"/>
</svg>