<?xml version="1.0" encoding="UTF-8"?>
<svg id="Layer_1" xmlns="http://www.w3.org/2000/svg" version="1.1" viewBox="0 0 550 135">
  <!-- Generator: Adobe Illustrator 29.0.0, SVG Export Plug-In . SVG Version: 2.1.0 Build 186)  -->
  <defs>
    <style>
      .st0 {
        fill: #0082ff;
      }
    </style>
  </defs>
  <path class="st0" d="M220.5,24.8c-5.2,0-10.2.6-15,1.8-4.8,1.2-8.8,2.8-12.2,4.8-2.6,1.5-4.6,3.3-6,5.4-1.4,2.1-2.2,4.5-2.2,7.4v46.9c0,4.3,1,7.2,3.1,8.7,2.1,1.5,5.4,2.2,10,2.2s4.3-.1,6.2-.4c1.8-.3,3.3-.5,4.3-.8v-53.5c2.3-1.2,4.9-2.2,7.8-2.9,3-.7,5.9-1.1,8.9-1.1s6.3.3,8.6.8c.6-1,1.2-2.3,1.7-3.7.5-1.4.8-3,.8-4.8,0-7.2-5.3-10.8-16-10.8Z"/>
</svg>