<?xml version="1.0" encoding="UTF-8"?>
<svg id="Layer_1" xmlns="http://www.w3.org/2000/svg" version="1.1" viewBox="0 0 550 135">
  <!-- Generator: Adobe Illustrator 29.0.0, SVG Export Plug-In . SVG Version: 2.1.0 Build 186)  -->
  <defs>
    <style>
      .st0 {
        fill: #0082ff;
      }
    </style>
  </defs>
  <path class="st0" d="M392.7,27.6c-2.4-1.4-5.2-2.2-8.5-2.2s-6.8.9-10,2.6c-.8,4.3-1.8,8.7-2.8,13.3-1.1,4.6-2.2,9.1-3.5,13.5-1.2,4.5-2.5,8.8-3.8,12.9-1.3,4.2-2.6,8-3.8,11.5h-.6c-2.4-7.4-4.7-14.7-7-22-2.3-7.3-4.6-14.7-6.8-22.2-1.1-3.7-2.7-6.2-4.8-7.6-2.1-1.4-4.7-2.1-8-2.1s-4.9.5-7.2,1.5c-2.2,1-3.9,2.1-5.2,3.5,3.3,13.1,6.4,23.8,9.5,32.1,3,8.3,5.7,15,8.1,20.1,2.3,4.9,4.3,8.3,6.2,10.1,1.9,1.8,3.7,3,5.5,3.5-2.5,3.9-5.5,7.8-9,11.6-3.5,3.8-7,7.2-10.2,10.1.5,3.6,2,6.5,4.5,8.8s5.6,3.5,9.4,3.5,9.4-2.4,14-7.2c4.6-4.8,9.8-12,15.5-21.8,2.8-4.6,5.5-10,8.1-16.1,2.6-6.1,5-12.3,7.1-18.5,2.1-6.2,3.8-12.2,5.1-17.8,1.3-5.7,1.9-10.4,1.9-14.1s-1.2-5.6-3.5-7.1Z"/>
</svg>