<?xml version="1.0" encoding="UTF-8"?>
<svg id="Layer_1" xmlns="http://www.w3.org/2000/svg" version="1.1" viewBox="0 0 141.8 141.8">
  <!-- Generator: Adobe Illustrator 29.0.0, SVG Export Plug-In . SVG Version: 2.1.0 Build 186)  -->
  <g>
    <g>
      <circle cx="70.9" cy="35.6" r="17.7"/>
      <circle cx="70.9" cy="70.9" r="17.7"/>
      <circle cx="70.9" cy="106.3" r="17.7"/>
      <circle cx="106.3" cy="70.9" r="17.7"/>
      <circle cx="35.6" cy="70.9" r="17.7"/>
    </g>
    <g>
      <circle cx="45.7" cy="45.7" r="5"/>
      <circle cx="45.7" cy="96.2" r="5"/>
      <circle cx="96.2" cy="45.7" r="5"/>
      <circle cx="96.2" cy="96.2" r="5"/>
      <circle cx="97.9" cy="31.4" r="3.4"/>
      <circle cx="110.5" cy="44" r="3.4"/>
      <circle cx="108.8" cy="33.1" r="1.7"/>
      <circle cx="31.4" cy="44" r="3.4"/>
      <circle cx="44" cy="31.4" r="3.4"/>
      <circle cx="33.1" cy="33.1" r="1.7"/>
      <circle cx="44" cy="110.5" r="3.4"/>
      <circle cx="31.4" cy="97.9" r="3.4"/>
      <circle cx="33.1" cy="108.8" r="1.7"/>
      <circle cx="110.5" cy="97.9" r="3.4"/>
      <circle cx="97.9" cy="110.5" r="3.4"/>
      <circle cx="108.8" cy="108.8" r="1.7"/>
      <circle cx="87.8" cy="54" r="1.7"/>
      <circle cx="54" cy="54" r="1.7"/>
      <circle cx="54" cy="87.8" r="1.7"/>
      <circle cx="87.8" cy="87.8" r="1.7"/>
      <circle cx="50.8" cy="22" r="1.7"/>
      <circle cx="22" cy="50.8" r="1.7"/>
      <circle cx="119.8" cy="50.8" r="1.7"/>
      <circle cx="91.1" cy="22" r="1.7"/>
      <circle cx="22" cy="91.1" r="1.7"/>
      <circle cx="50.8" cy="119.8" r="1.7"/>
      <circle cx="91.1" cy="119.8" r="1.7"/>
      <circle cx="119.8" cy="91.1" r="1.7"/>
    </g>
  </g>
  <path d="M70.9,133.3c-34.4,0-62.4-28-62.4-62.4S36.5,8.5,70.9,8.5s62.4,28,62.4,62.4-28,62.4-62.4,62.4ZM70.9,12.7c-32.1,0-58.2,26.1-58.2,58.2s26.1,58.2,58.2,58.2,58.2-26.1,58.2-58.2S103,12.7,70.9,12.7Z"/>
  <path d="M70.9,138.1c-1.6,0-3.2-.5-4.7-.9-1.1-.3-2.2-.6-3.2-.8-1.1-.1-2.2,0-3.4,0-1.6,0-3.2.2-4.7-.2-1.6-.4-3-1.2-4.4-2-1-.6-2-1.1-3-1.5-1-.4-2.1-.6-3.3-.8-1.5-.3-3.1-.6-4.6-1.4-1.4-.8-2.6-1.9-3.7-3-.8-.8-1.6-1.6-2.5-2.2-.9-.6-1.9-1.1-3-1.6-1.4-.7-2.9-1.4-4.1-2.4-1.2-1.1-2.1-2.5-2.9-3.8-.6-1-1.2-1.9-1.9-2.7-.7-.8-1.6-1.5-2.5-2.2-1.2-1-2.5-2-3.4-3.3-.9-1.3-1.4-2.9-1.9-4.4-.4-1.1-.7-2.2-1.2-3.1-.5-.9-1.2-1.8-1.9-2.8-1-1.3-1.9-2.6-2.5-4.1-.6-1.5-.7-3.1-.8-4.7,0-1.2-.2-2.3-.4-3.3-.3-1-.7-2-1.2-3.1-.6-1.5-1.3-3-1.5-4.6-.2-1.6,0-3.2.3-4.7.2-1.2.4-2.3.4-3.4s-.2-2.2-.4-3.4c-.3-1.5-.5-3.1-.3-4.7.2-1.6.8-3.1,1.5-4.6.5-1.1.9-2.1,1.2-3.1.3-1.1.3-2.2.4-3.3.1-1.6.2-3.2.8-4.7.6-1.5,1.6-2.8,2.5-4.1.7-.9,1.4-1.8,1.9-2.8.5-1,.9-2,1.2-3.1.5-1.5,1-3,1.9-4.4.9-1.3,2.2-2.4,3.4-3.3.9-.7,1.8-1.4,2.5-2.2.7-.8,1.3-1.8,1.9-2.8.8-1.3,1.7-2.7,2.9-3.8,1.2-1.1,2.7-1.8,4.1-2.4,1.1-.5,2.1-1,3-1.6.9-.6,1.7-1.4,2.5-2.2,1.1-1.1,2.3-2.2,3.7-3,1.4-.8,3-1.1,4.6-1.4,1.2-.2,2.2-.4,3.3-.8,1-.4,1.9-.9,3-1.5,1.4-.8,2.8-1.6,4.4-2,1.6-.4,3.2-.3,4.7-.2,1.2,0,2.3.1,3.4,0,1.1-.1,2.1-.4,3.2-.8,1.5-.5,3.1-.9,4.7-.9s3.2.5,4.7.9c1.1.3,2.2.6,3.2.8,1.1.1,2.2,0,3.4,0,1.6,0,3.2-.1,4.7.2,1.6.4,3,1.2,4.4,2,1,.6,2,1.1,3,1.5,1,.4,2.1.6,3.3.8,1.5.3,3.1.6,4.6,1.4,1.4.8,2.6,1.9,3.7,3,.8.8,1.6,1.6,2.5,2.2.9.6,1.9,1.1,3,1.6,1.4.7,2.9,1.4,4.1,2.4,1.2,1.1,2.1,2.5,2.9,3.8.6,1,1.2,1.9,1.9,2.8.7.8,1.6,1.5,2.5,2.2,1.2,1,2.5,2,3.4,3.3.9,1.3,1.4,2.9,1.9,4.4.4,1.1.7,2.2,1.2,3.1.5.9,1.2,1.8,1.9,2.8,1,1.3,1.9,2.5,2.5,4.1.6,1.5.7,3.1.8,4.7,0,1.2.2,2.3.4,3.3.3,1,.7,2,1.2,3.1.6,1.5,1.3,3,1.5,4.6.2,1.6,0,3.2-.3,4.7-.2,1.2-.4,2.3-.4,3.4s.2,2.2.4,3.4c.3,1.5.5,3.1.3,4.7-.2,1.6-.8,3.1-1.5,4.6-.5,1.1-.9,2.1-1.2,3.1-.3,1.1-.3,2.2-.4,3.3-.1,1.6-.2,3.2-.8,4.7-.6,1.5-1.6,2.8-2.5,4.1-.7.9-1.4,1.8-1.9,2.8-.5,1-.9,2-1.2,3.1-.5,1.5-1,3-1.9,4.4-.9,1.3-2.2,2.4-3.4,3.3-.9.7-1.8,1.4-2.5,2.2-.7.8-1.3,1.8-1.9,2.7-.8,1.3-1.7,2.7-2.9,3.8-1.2,1.1-2.7,1.8-4.1,2.4-1.1.5-2.1,1-3,1.6-.9.6-1.7,1.4-2.5,2.2-1.1,1.1-2.3,2.2-3.7,3-1.4.8-3,1.1-4.6,1.4-1.2.2-2.2.4-3.3.8-1,.4-1.9.9-3,1.5-1.4.8-2.8,1.6-4.4,2-1.6.4-3.2.3-4.7.2-1.2,0-2.3-.1-3.4,0-1,.1-2.1.4-3.2.8-1.5.5-3.1.9-4.7.9ZM61.4,134.7c.6,0,1.2,0,1.7,0,1.2.1,2.4.5,3.5.8,1.5.4,2.9.8,4.3.8s2.8-.4,4.3-.8c1.1-.3,2.3-.7,3.5-.8,1.2-.1,2.5,0,3.7,0,1.5,0,2.9.1,4.3-.2,1.4-.3,2.6-1.1,3.9-1.8,1-.6,2.1-1.2,3.2-1.6,1.1-.4,2.4-.7,3.5-.9,1.5-.3,2.9-.6,4.1-1.2,1.2-.6,2.3-1.6,3.3-2.7.9-.8,1.7-1.7,2.7-2.4,1-.7,2.1-1.2,3.2-1.7,1.4-.6,2.7-1.3,3.7-2.2,1-.9,1.8-2.1,2.6-3.4.6-1,1.3-2.1,2.1-3,.8-.9,1.8-1.7,2.7-2.4,1.2-1,2.3-1.9,3.1-3,.8-1.1,1.2-2.5,1.7-3.9.4-1.1.8-2.3,1.3-3.4.6-1.1,1.3-2,2-3,.9-1.2,1.8-2.4,2.3-3.7.5-1.3.6-2.7.7-4.2,0-1.2.2-2.4.5-3.6.3-1.2.8-2.3,1.2-3.4.6-1.4,1.2-2.7,1.4-4.1.2-1.3,0-2.7-.3-4.2-.2-1.2-.4-2.4-.4-3.7s.2-2.5.4-3.7c.3-1.5.5-2.9.3-4.2-.2-1.4-.7-2.7-1.4-4.1-.5-1.1-1-2.2-1.2-3.4-.3-1.2-.4-2.4-.5-3.6-.1-1.5-.2-2.9-.7-4.2-.5-1.3-1.4-2.4-2.3-3.7-.7-.9-1.5-1.9-2-3-.6-1.1-1-2.3-1.3-3.4-.5-1.4-.9-2.8-1.7-3.9-.8-1.1-1.9-2-3.1-3-.9-.7-1.9-1.5-2.7-2.4-.8-.9-1.5-2-2.1-3-.8-1.3-1.6-2.5-2.6-3.4-1-.9-2.3-1.5-3.7-2.2-1.1-.5-2.2-1-3.2-1.7-1-.7-1.9-1.6-2.7-2.4-1.1-1.1-2.1-2.1-3.3-2.7-1.2-.6-2.6-.9-4.1-1.2-1.2-.2-2.4-.5-3.5-.9-1.1-.4-2.2-1-3.2-1.6-1.3-.8-2.6-1.5-3.9-1.8-1.3-.3-2.7-.3-4.3-.2-1.2,0-2.4.1-3.7,0-1.2-.1-2.4-.5-3.5-.8-1.5-.4-2.9-.8-4.3-.8s-2.8.4-4.3.8c-1.1.3-2.3.7-3.5.8-1.2.1-2.5,0-3.7,0-1.5,0-2.9-.1-4.3.2-1.4.3-2.6,1.1-3.9,1.8-1,.6-2.1,1.2-3.2,1.6-1.1.4-2.4.7-3.5.9-1.5.3-2.9.6-4.1,1.2-1.2.6-2.3,1.6-3.3,2.7-.9.8-1.7,1.7-2.7,2.4-1,.7-2.1,1.2-3.2,1.7-1.4.6-2.7,1.3-3.7,2.2-1,.9-1.8,2.1-2.6,3.4-.6,1-1.3,2.1-2.1,3-.8.9-1.8,1.7-2.7,2.4-1.2,1-2.3,1.9-3.1,3-.8,1.1-1.2,2.5-1.7,3.9-.4,1.1-.8,2.3-1.3,3.4-.6,1.1-1.3,2-2,3-.9,1.2-1.8,2.4-2.3,3.7-.5,1.3-.6,2.7-.7,4.2,0,1.2-.2,2.4-.5,3.6-.3,1.2-.8,2.3-1.2,3.4-.6,1.4-1.2,2.7-1.4,4.1-.2,1.3,0,2.7.3,4.2.2,1.2.4,2.4.4,3.7s-.2,2.5-.4,3.7c-.3,1.5-.5,2.9-.3,4.2.2,1.4.7,2.7,1.4,4.1.5,1.1,1,2.2,1.2,3.4.3,1.2.4,2.4.5,3.6.1,1.5.2,2.9.7,4.2.5,1.3,1.4,2.4,2.3,3.7.7.9,1.5,1.9,2,3,.6,1.1,1,2.3,1.3,3.4.5,1.4.9,2.8,1.7,3.9.8,1.1,1.9,2,3.1,3,.9.7,1.9,1.5,2.7,2.4.8.9,1.5,2,2.1,3,.8,1.3,1.6,2.5,2.6,3.4,1,.9,2.3,1.5,3.7,2.2,1.1.5,2.2,1,3.2,1.7,1,.7,1.9,1.6,2.7,2.4,1.1,1.1,2.1,2.1,3.3,2.7,1.2.6,2.6.9,4.1,1.2,1.2.2,2.4.5,3.5.9,1.1.4,2.2,1,3.2,1.6,1.3.8,2.6,1.5,3.9,1.8,1.3.3,2.7.3,4.3.2.6,0,1.3,0,1.9,0Z"/>
</svg>