<?xml version="1.0" encoding="UTF-8"?>
<svg id="Layer_1" xmlns="http://www.w3.org/2000/svg" version="1.1" viewBox="0 0 512 118.7">
  <!-- Generator: Adobe Illustrator 29.0.0, SVG Export Plug-In . SVG Version: 2.1.0 Build 186)  -->
  <defs>
    <style>
      .st0 {
        fill: #0082ff;
      }
    </style>
  </defs>
  <g>
    <path class="st0" d="M152,8.4c-6.8-5.6-16.9-8.4-30.1-8.4s-3.8,0-5.9.1c-2.1,0-4.2.3-6.3.6-2.1.3-4.1.6-6.1,1-2,.4-3.8.9-5.3,1.5-2,.6-3.4,1.4-4.5,2.5-1,1.1-1.5,2.6-1.5,4.5v71c0,4.1.9,6.9,2.7,8.5,1.8,1.6,5,2.3,9.6,2.3s4.2-.1,6.1-.4c2-.2,3.5-.5,4.5-.8v-28.2h9.7c5.9,0,11.1-.7,15.7-2.2,4.6-1.5,8.6-3.6,11.8-6.3,3.2-2.7,5.7-6,7.4-9.9,1.7-3.9,2.6-8.1,2.6-12.8,0-9.8-3.4-17.4-10.2-23Z"/>
    <path class="st0" d="M205.5,18.6c-5,0-9.7.6-14.3,1.7-4.5,1.1-8.4,2.7-11.6,4.6-2.4,1.5-4.3,3.2-5.7,5.1-1.4,2-2,4.3-2,7v44.6c0,4.1,1,6.9,2.9,8.3,2,1.4,5.1,2.1,9.5,2.1s4.1-.1,5.9-.4c1.8-.2,3.1-.5,4.1-.8v-50.9c2.1-1.2,4.6-2.1,7.5-2.8,2.8-.7,5.7-1,8.5-1s5.9.2,8.2.7c.6-1,1.1-2.1,1.6-3.5.5-1.4.7-2.9.7-4.5,0-6.8-5.1-10.2-15.2-10.2Z"/>
    <path class="st0" d="M282,24.7c-2.9-2.1-6.5-3.7-10.6-4.8-4.1-1-8.8-1.5-13.8-1.5s-7.3.3-11,.8c-3.8.5-7,1.3-9.9,2.4-4.5,1.9-6.7,4.9-6.7,9.2s.4,3.6,1.2,5.2c.8,1.6,1.8,2.8,3,3.6,2.8-1.2,6-2.2,9.6-3.1,3.6-.9,7.2-1.3,10.9-1.3s8.4.7,11,2.2c2.5,1.5,3.8,3.8,3.8,6.9v1.6l-19.5,2c-8.3.9-14.4,3.1-18.4,6.6-4,3.5-6,8.6-6,15.4s3,13.8,8.9,17.6c5.9,3.9,13.9,5.8,24,5.8s10.5-.5,14.9-1.5c4.4-1,8.1-2.4,11.1-4.2,1.9-1.1,3.4-2.4,4.8-3.9,1.3-1.5,2-3.5,2-6.1v-33.1c0-4.5-.8-8.4-2.4-11.7-1.6-3.3-3.9-6-6.8-8.2Z"/>
    <path class="st0" d="M369.2,21.2c-2.2-1.4-4.9-2-8-2s-6.5.8-9.5,2.5c-.8,4.1-1.7,8.3-2.7,12.7-1,4.3-2.1,8.6-3.3,12.9-1.2,4.2-2.4,8.3-3.7,12.3-1.3,4-2.5,7.6-3.7,10.9h-.6c-2.2-7-4.5-14-6.7-20.9-2.2-6.9-4.4-13.9-6.5-21.1-1.1-3.5-2.6-5.9-4.5-7.2-2-1.3-4.5-2-7.6-2s-4.7.5-6.8,1.4c-2.1.9-3.7,2-4.9,3.3,3.1,12.5,6.1,22.7,9,30.5,2.9,7.9,5.4,14.2,7.7,19.1,2.1,4.7,4.1,7.9,5.9,9.6,1.8,1.7,3.5,2.8,5.2,3.3-2.3,3.7-5.2,7.4-8.6,11-3.4,3.7-6.6,6.9-9.7,9.6.5,3.4,1.9,6.2,4.2,8.4s5.3,3.3,8.9,3.3,8.9-2.3,13.3-6.8c4.4-4.5,9.3-11.4,14.8-20.7,2.6-4.4,5.2-9.5,7.7-15.3,2.5-5.8,4.7-11.7,6.7-17.6,2-5.9,3.6-11.6,4.8-17,1.2-5.4,1.8-9.9,1.8-13.4s-1.1-5.4-3.4-6.7Z"/>
    <path class="st0" d="M440.8,27.1c-3-2.7-6.5-4.9-10.7-6.4-4.1-1.5-8.7-2.3-13.7-2.3s-9,.7-13.4,2.1c-4.3,1.4-8.2,3.6-11.6,6.7-3.4,3-6,6.8-8,11.4-2,4.6-3,10-3,16.2s1,12,3,16.8c2,4.8,4.8,8.8,8.3,11.9,3.5,3.2,7.7,5.6,12.6,7.2,4.9,1.6,10.2,2.4,15.9,2.4s7.5-.3,10.8-.8c3.3-.5,6.1-1.4,8.5-2.5,2.4-1.1,4.3-2.5,5.6-4.2,1.4-1.7,2-3.6,2-5.9s-.5-3.6-1.5-5.1c-1-1.6-2.2-2.8-3.7-3.8-2.2,1.4-5.2,2.6-8.8,3.7-3.6,1.1-7.5,1.7-11.6,1.7s-8.4-.9-11.9-2.6c-3.4-1.7-5.8-4.6-7.2-8.7l38-5.7c3-.5,5.4-1.5,7-3.1,1.7-1.6,2.5-3.9,2.5-7,0-4.5-.8-8.6-2.5-12.4-1.7-3.8-4-7.1-7-9.8Z"/>
    <path class="st0" d="M496.8,18.6c-5,0-9.7.6-14.3,1.7-4.5,1.1-8.4,2.7-11.6,4.6-2.4,1.5-4.3,3.2-5.7,5.1-1.4,2-2,4.3-2,7v44.6c0,4.1,1,6.9,2.9,8.3,2,1.4,5.1,2.1,9.5,2.1s4.1-.1,5.9-.4c1.8-.2,3.1-.5,4.1-.8v-50.9c2.1-1.2,4.6-2.1,7.5-2.8,2.8-.7,5.7-1,8.5-1s5.9.2,8.2.7c.6-1,1.1-2.1,1.6-3.5.5-1.4.7-2.9.7-4.5,0-6.8-5.1-10.2-15.2-10.2Z"/>
  </g>
  <g>
    <circle class="st0" cx="36.8" cy="23.9" r="12.3"/>
    <circle class="st0" cx="36.8" cy="48.4" r="12.3"/>
    <circle class="st0" cx="36.8" cy="72.9" r="12.3"/>
    <circle class="st0" cx="61.3" cy="48.4" r="12.3"/>
    <circle class="st0" cx="12.3" cy="48.4" r="12.3"/>
  </g>
</svg>