<?xml version="1.0" encoding="UTF-8"?>
<svg xmlns="http://www.w3.org/2000/svg" version="1.1" viewBox="0 0 1000 1000">
  <!-- Generator: Adobe Illustrator 28.6.0, SVG Export Plug-In . SVG Version: 1.2.0 Build 709)  -->
  <g>
    <g id="Layer_1">
      <path d="M805.9,471.6l36.6-36.6c20.1-20.1,52.6-20.1,72.8,0l36.6,36.6c20.1,20.1,20.1,52.6,0,72.8l-36.6,36.6-109.4-109.4ZM769.3,508.2l-266.2,266.2c-4.6,4.6-7.2,10.8-7.2,18.1v72.8c0,14.4,11.4,25.8,25.8,25.8h72.8c6.7,0,13.4-2.6,18.1-7.7l266.2-266.2-109.4-108.9ZM93.1,359.4c-32,0-57.8,25.8-57.8,57.8s25.8,57.8,57.8,57.8,57.8-25.8,57.8-57.8-25.8-57.8-57.8-57.8ZM93.1,128.3c-32,0-57.8,25.8-57.8,57.8s25.8,57.8,57.8,57.8,57.8-25.8,57.8-57.8-25.8-57.8-57.8-57.8ZM93.1,590.4c-32,0-57.8,26.2-57.8,57.8s26.2,57.8,57.8,57.8,57.8-26.2,57.8-57.8-25.8-57.8-57.8-57.8ZM713.7,417.1c0-22-18-40-40-40H248.6c-22,0-40,18-40,40h0c0,22,18,40,40,40h425.2c22,0,40-18,40-40h0ZM713.7,186.1c0-22-18-40-40-40H248.6c-22,0-40,18-40,40h0c0,22,18,40,40,40h425.2c22,0,40-18,40-40h0ZM485.3,648.1c0-22-18-40-40-40h-196.7c-22,0-40,18-40,40h0c0,22,18,40,40,40h196.7c22,0,40-18,40-40h0Z"/>
    </g>
  </g>
</svg>