<?xml version="1.0" encoding="UTF-8"?>
<svg xmlns="http://www.w3.org/2000/svg" version="1.1" viewBox="0 0 1000 1000">
  <!-- Generator: Adobe Illustrator 28.6.0, SVG Export Plug-In . SVG Version: 1.2.0 Build 709)  -->
  <g>
    <g id="Layer_1">
      <path d="M801.3,507.6l33.8-33.8c18.6-18.6,48.6-18.6,67.2,0l33.8,33.8c18.6,18.6,18.6,48.6,0,67.2l-33.8,33.8-101.1-101.1ZM767.4,541.4l-246,246c-4.3,4.3-6.7,10-6.7,16.7v67.2c0,13.3,10.5,23.8,23.8,23.8h67.2c6.2,0,12.4-2.4,16.7-7.1l246-246-101.1-100.6ZM112.1,363.4c-32,0-57.8,25.8-57.8,57.8s25.8,57.8,57.8,57.8,57.8-25.8,57.8-57.8-25.8-57.8-57.8-57.8ZM112.1,132.3c-32,0-57.8,25.8-57.8,57.8s25.8,57.8,57.8,57.8,57.8-25.8,57.8-57.8-25.8-57.8-57.8-57.8ZM112.1,594.4c-32,0-57.8,26.2-57.8,57.8s26.2,57.8,57.8,57.8,57.8-26.2,57.8-57.8-25.8-57.8-57.8-57.8ZM766.6,421.1c0-22-18-40-40-40h-459c-22,0-40,18-40,40h0c0,22,18,40,40,40h459c22,0,40-18,40-40h0ZM766.6,190.1c0-22-18-40-40-40h-459c-22,0-40,18-40,40h0c0,22,18,40,40,40h459c22,0,40-18,40-40h0ZM530,652.1c0-22-18-40-40-40h-222.4c-22,0-40,18-40,40h0c0,22,18,40,40,40h222.4c22,0,40-18,40-40h0Z"/>
    </g>
  </g>
</svg>