<?xml version="1.0" encoding="UTF-8"?>
<svg id="Layer_1" xmlns="http://www.w3.org/2000/svg" version="1.1" viewBox="0 0 512 512">
  <!-- Generator: Adobe Illustrator 29.0.0, SVG Export Plug-In . SVG Version: 2.1.0 Build 186)  -->
  <path d="M256,170.7c-47.1,0-85.3-38.2-85.3-85.3S208.9,0,256,0s85.3,38.2,85.3,85.3-38.2,85.3-85.3,85.3ZM256,170.7c-47.1,0-85.3,38.2-85.3,85.3s38.2,85.3,85.3,85.3,85.3-38.2,85.3-85.3-38.2-85.3-85.3-85.3ZM170.7,426.7c0,47.1,38.2,85.3,85.3,85.3s85.3-38.2,85.3-85.3-38.2-85.3-85.3-85.3-85.3,38.2-85.3,85.3ZM426.7,170.7c-47.1,0-85.3,38.2-85.3,85.3s38.2,85.3,85.3,85.3,85.3-38.2,85.3-85.3-38.2-85.3-85.3-85.3ZM85.3,170.7C38.2,170.7,0,208.9,0,256s38.2,85.3,85.3,85.3,85.3-38.2,85.3-85.3-38.2-85.3-85.3-85.3Z"/>
</svg>