<?xml version="1.0" encoding="UTF-8"?>
<svg id="Layer_1" xmlns="http://www.w3.org/2000/svg" version="1.1" viewBox="0 0 512 512">
  <!-- Generator: Adobe Illustrator 29.0.0, SVG Export Plug-In . SVG Version: 2.1.0 Build 186)  -->
  <path d="M341.3,85.3c0,47.1-38.2,85.3-85.3,85.3s-85.3-38.2-85.3-85.3S208.9,0,256,0s85.3,38.2,85.3,85.3ZM256,170.7c-47.1,0-85.3,38.2-85.3,85.3s38.2,85.3,85.3,85.3,85.3-38.2,85.3-85.3-38.2-85.3-85.3-85.3ZM256,341.3c-47.1,0-85.3,38.2-85.3,85.3s38.2,85.3,85.3,85.3,85.3-38.2,85.3-85.3-38.2-85.3-85.3-85.3ZM426.7,170.7c-47.1,0-85.3,38.2-85.3,85.3s38.2,85.3,85.3,85.3,85.3-38.2,85.3-85.3-38.2-85.3-85.3-85.3ZM85.3,170.7C38.2,170.7,0,208.9,0,256s38.2,85.3,85.3,85.3,85.3-38.2,85.3-85.3-38.2-85.3-85.3-85.3ZM134,109.7c-13.4,0-24.3,10.9-24.3,24.3s10.9,24.3,24.3,24.3,24.3-10.9,24.3-24.3-10.9-24.3-24.3-24.3ZM134,353.7c-13.4,0-24.3,10.9-24.3,24.3s10.9,24.3,24.3,24.3,24.3-10.9,24.3-24.3-10.9-24.3-24.3-24.3ZM378,109.7c-13.4,0-24.3,10.9-24.3,24.3s10.9,24.3,24.3,24.3,24.3-10.9,24.3-24.3-10.9-24.3-24.3-24.3ZM378,353.7c-13.4,0-24.3,10.9-24.3,24.3s10.9,24.3,24.3,24.3,24.3-10.9,24.3-24.3-10.9-24.3-24.3-24.3ZM386.1,48.8c-9,0-16.2,7.3-16.2,16.2s7.3,16.2,16.2,16.2,16.2-7.3,16.2-16.2-7.3-16.2-16.2-16.2ZM446.9,109.7c-9,0-16.2,7.3-16.2,16.2s7.3,16.2,16.2,16.2,16.2-7.3,16.2-16.2-7.3-16.2-16.2-16.2ZM438.8,65.1c-4.5,0-8.1,3.6-8.1,8.1s3.6,8.1,8.1,8.1,8.1-3.6,8.1-8.1-3.6-8.1-8.1-8.1ZM48.8,125.9c0,9,7.3,16.2,16.2,16.2,9,0,16.2-7.3,16.2-16.2s-7.3-16.2-16.2-16.2c-9,0-16.2,7.3-16.2,16.2ZM109.7,65.1c0,9,7.3,16.2,16.2,16.2s16.2-7.3,16.2-16.2-7.3-16.2-16.2-16.2c-9,0-16.2,7.3-16.2,16.2ZM65.1,73.2c0,4.5,3.6,8.1,8.1,8.1s8.1-3.6,8.1-8.1-3.6-8.1-8.1-8.1c-4.5,0-8.1,3.6-8.1,8.1ZM125.9,463.2c9,0,16.2-7.3,16.2-16.2,0-9-7.3-16.2-16.2-16.2-9,0-16.2,7.3-16.2,16.2s7.3,16.2,16.2,16.2ZM65.1,402.3c9,0,16.2-7.3,16.2-16.2s-7.3-16.2-16.2-16.2-16.2,7.3-16.2,16.2,7.3,16.2,16.2,16.2ZM73.2,446.9c4.5,0,8.1-3.6,8.1-8.1,0-4.5-3.6-8.1-8.1-8.1-4.5,0-8.1,3.6-8.1,8.1,0,4.5,3.6,8.1,8.1,8.1ZM463.2,386.1c0-9-7.3-16.2-16.2-16.2s-16.2,7.3-16.2,16.2,7.3,16.2,16.2,16.2,16.2-7.3,16.2-16.2ZM402.3,446.9c0-9-7.3-16.2-16.2-16.2s-16.2,7.3-16.2,16.2,7.3,16.2,16.2,16.2,16.2-7.3,16.2-16.2ZM446.9,438.8c0-4.5-3.6-8.1-8.1-8.1s-8.1,3.6-8.1,8.1,3.6,8.1,8.1,8.1,8.1-3.6,8.1-8.1ZM337.5,166.4c-4.5,0-8.1,3.6-8.1,8.1s3.6,8.1,8.1,8.1,8.1-3.6,8.1-8.1-3.6-8.1-8.1-8.1ZM174.5,166.4c-4.5,0-8.1,3.6-8.1,8.1s3.6,8.1,8.1,8.1,8.1-3.6,8.1-8.1-3.6-8.1-8.1-8.1ZM174.5,329.4c-4.5,0-8.1,3.6-8.1,8.1s3.6,8.1,8.1,8.1,8.1-3.6,8.1-8.1-3.6-8.1-8.1-8.1ZM337.5,329.4c-4.5,0-8.1,3.6-8.1,8.1s3.6,8.1,8.1,8.1,8.1-3.6,8.1-8.1-3.6-8.1-8.1-8.1Z"/>
</svg>