<?xml version="1.0" encoding="UTF-8"?>
<svg id="Layer_1" xmlns="http://www.w3.org/2000/svg" version="1.1" viewBox="0 0 512 512">
  <!-- Generator: Adobe Illustrator 29.0.0, SVG Export Plug-In . SVG Version: 2.1.0 Build 186)  -->
  <path d="M428.3,214.2h-130.5v-46.8c46.2,0,83.7-37.5,83.7-83.7S344,0,297.8,0s-83.7,37.5-83.7,83.7v130.5h-46.8c0-46.2-37.5-83.7-83.7-83.7S0,168,0,214.2s37.5,83.7,83.7,83.7h130.5v46.8c-46.2,0-83.7,37.5-83.7,83.7s37.5,83.7,83.7,83.7,83.7-37.5,83.7-83.7v-130.5h46.9c0,46.2,37.5,83.7,83.7,83.7s83.7-37.5,83.7-83.7-37.5-83.7-83.7-83.7Z"/>
</svg>