<?xml version="1.0" encoding="UTF-8"?>
<svg xmlns="http://www.w3.org/2000/svg" version="1.1" viewBox="0 0 512 512">
  <defs>
    <style>
      .cls-1 {
        display: none;
      }
    </style>
  </defs>
  <!-- Generator: Adobe Illustrator 28.6.0, SVG Export Plug-In . SVG Version: 1.2.0 Build 709)  -->
  <g>
    <g id="margins" class="cls-1">
      <polyline points="55.2 0 55 0 55 512 55.2 512 55.2 0"/>
      <polyline points="457.2 .2 457 .2 457 512.2 457.2 512.2 457.2 .2"/>
      <polyline points="0 456.8 0 457 512 457 512 456.8 0 456.8"/>
      <polyline points=".2 54.8 .2 55 512.2 55 512.2 54.8 .2 54.8"/>
    </g>
    <g id="design">
      <path d="M221.8,79.6h0,0M143.1,196.8c-4.3,11.7-6.5,23.9-6.5,36.3v61.4c0,11.8,4.7,22.7,13.3,30.8,8.2,7.8,18.5,11.9,29.8,11.9s22.2-4.4,30.2-12.5c1.3-1.3,2.5-2.7,3.6-4.1v12c0,9.3-1.9,18-5.8,26.5-3.9,8.5-9.3,15.6-16.4,21.7-7.1,6-14.8,10.3-23.7,12.9l-137.2,35.7v-68.1l69-22.7c12.3-4.1,20.6-15.5,20.6-28.5v-64.3c0-9.4,2.5-18,7.8-26.1l15.3-22.9M369.8,197.5l14.8,22.2c5.2,8.2,7.8,16.7,7.8,26.1v64.3c0,12.9,8.2,24.3,20.5,28.4l69.2,23.2v67.7l-137.2-35.7c-8.9-2.7-16.7-6.9-23.7-12.9-7.1-6.1-12.5-13.2-16.4-21.7-3.9-8.5-5.8-17.2-5.8-26.5v-12.1c1.3,1.7,2.8,3.3,4.4,4.9,8.2,7.8,18.5,11.9,29.8,11.9s22.2-4.4,30.2-12.5c8-8,12.5-18.8,12.5-30.2v-61.4c0-12.5-2-24.4-6.1-35.6M218.2,51.3c-1.9,0-3.7.2-5.6.7-6.4,1.5-11.5,5-15.3,10.4-.3,0-.5.1-.8.4l-93.7,140.4c-8.5,13.1-12.7,27.3-12.7,42.6v64.3l-72,23.7c-4.9,1.6-9.1,4.8-12.5,9.6-3.4,4.8-5.1,9.8-5.1,14.9v76.5c0,5.7,1.9,11.2,5.7,16.4,4.9,6.3,11.6,9.4,20.1,9.4s3.4-.3,6.1-.8l143.3-37.2c13.1-3.8,24.8-10.2,35.2-19,10.4-8.9,18.4-19.5,24.1-31.9,5.7-12.4,8.6-25.4,8.6-39.1v-102.3c0-7.1-2.5-13.1-7.6-18-5.1-4.9-11.1-7.4-18.2-7.4s-12.8,2.5-17.8,7.4c-5.1,4.9-7.6,10.9-7.6,18v64.3c0,3.5-1.2,6.5-3.7,9-2.5,2.5-5.5,3.7-9,3.7s-6.6-1.2-9.2-3.7c-2.6-2.5-3.9-5.5-3.9-9v-61.4c0-13.6,3.7-26.7,11.1-39.3l62.2-104c3.8-6,4.8-12.4,2.9-19.2-1.9-6.8-5.8-12-11.7-15.6-4.1-2.5-8.4-3.7-12.8-3.7h0ZM294.3,51.3c-4.5,0-8.8,1.3-13.1,3.9-6,3.7-9.8,8.9-11.5,15.8-1.6,6.8-.7,13.2,2.9,19.2l62.2,103.6c7.4,11.7,11.1,24.8,11.1,39.3v61.4c0,3.5-1.2,6.5-3.7,9-2.5,2.5-5.5,3.7-9,3.7s-6.6-1.2-9.2-3.7c-2.6-2.5-3.9-5.5-3.9-9v-64.3c0-7.1-2.5-13.1-7.4-18-4.9-4.9-10.9-7.4-18-7.4s-13.2,2.5-18.2,7.4c-5.1,4.9-7.6,10.9-7.6,18v102.3c0,13.6,2.9,26.7,8.6,39.1,5.7,12.4,13.8,23.1,24.1,31.9,10.4,8.9,22.1,15.2,35.2,19l143.3,37.2c2.7.5,4.9.8,6.5.8,5.7,0,10.6-1.5,14.7-4.5,3.5-2.7,6.3-6.3,8.2-10.6,1.6-3.5,2.5-7,2.5-10.2v-76.9c0-5.5-1.6-10.4-4.9-14.9-3.3-4.5-7.5-7.6-12.7-9.2l-72-24.1v-64.3c0-15.3-4.2-29.5-12.7-42.6l-93.7-140.4c-.3-.3-.5-.4-.8-.4-3.8-5.5-8.9-8.9-15.3-10.4-1.9-.4-3.7-.6-5.5-.6h0Z"/>
    </g>
  </g>
</svg>