<?xml version="1.0" encoding="UTF-8"?>
<svg xmlns="http://www.w3.org/2000/svg" version="1.1" viewBox="0 0 1000 1000">
  <defs>
    <style>
      .cls-1 {
        fill: none;
      }
    </style>
  </defs>
  <!-- Generator: Adobe Illustrator 28.6.0, SVG Export Plug-In . SVG Version: 1.2.0 Build 709)  -->
  <g>
    <g id="Layer_1">
      <rect class="cls-1" width="1000" height="1000"/>
      <path d="M425,400c13.9,0,25.7,4.8,35.6,14.4,9.9,9.6,14.8,21.3,14.8,35.2v199.9c0,26.7-5.6,52.1-16.8,76.4-11.2,24.3-26.9,45.1-47.2,62.4-20.3,17.3-43.2,29.7-68.8,37.2l-279.9,72.8c-5.3,1.1-9.3,1.6-12,1.6-16.5,0-29.6-6.1-39.2-18.4-7.5-10.1-11.2-20.8-11.2-32v-149.5c0-10.1,3.3-19.9,10-29.2,6.7-9.3,14.8-15.6,24.4-18.8l140.7-46.4v-125.6c0-29.9,8.3-57.6,24.8-83.2L383.4,122.5c.5-.5,1.1-.8,1.6-.8,7.5-10.7,17.5-17.5,30-20.4,12.5-2.9,24.5-.9,36,6,11.5,6.9,19.1,17.1,22.8,30.4,3.7,13.3,1.9,25.9-5.6,37.6l-121.6,203.1c-14.4,24.5-21.6,50.1-21.6,76.8v120c0,6.9,2.5,12.8,7.6,17.6,5.1,4.8,11.1,7.2,18,7.2s12.8-2.4,17.6-7.2c4.8-4.8,7.2-10.7,7.2-17.6v-125.6c0-13.9,4.9-25.6,14.8-35.2,9.9-9.6,21.5-14.4,34.8-14.4ZM965.6,652.7c10.1,3.2,18.4,9.2,24.8,18,6.4,8.8,9.6,18.5,9.6,29.2v150.3c0,6.4-1.6,13.1-4.8,20-3.7,8.5-9.1,15.5-16,20.8-8,5.9-17.6,8.8-28.8,8.8s-7.5-.5-12.8-1.6l-279.9-72.8c-25.6-7.5-48.5-19.9-68.8-37.2-20.3-17.3-36-38.1-47.2-62.4-11.2-24.3-16.8-49.7-16.8-76.4v-199.9c0-13.9,4.9-25.6,14.8-35.2,9.9-9.6,21.7-14.4,35.6-14.4s25.6,4.8,35.2,14.4c9.6,9.6,14.4,21.3,14.4,35.2v125.6c0,6.9,2.5,12.8,7.6,17.6,5.1,4.8,11.1,7.2,18,7.2s12.8-2.4,17.6-7.2c4.8-4.8,7.2-10.7,7.2-17.6v-120c0-28.3-7.2-53.8-21.6-76.8l-121.6-202.3c-6.9-11.7-8.8-24.3-5.6-37.6,3.2-13.3,10.7-23.6,22.4-30.8,11.7-7.2,23.9-9.3,36.4-6.4,12.5,2.9,22.5,9.7,30,20.4.5,0,1.1.3,1.6.8l183.1,274.3c16.5,25.6,24.8,53.3,24.8,83.2v125.6l140.7,47.2Z"/>
    </g>
  </g>
</svg>