<?xml version="1.0" encoding="UTF-8"?>
<svg id="Layer_1" xmlns="http://www.w3.org/2000/svg" version="1.1" viewBox="0 0 1000 1000">
  <!-- Generator: Adobe Illustrator 29.0.0, SVG Export Plug-In . SVG Version: 2.1.0 Build 186)  -->
  <defs>
    <style>
      .st0 {
        fill: none;
      }
    </style>
  </defs>
  <g id="Layer_11" data-name="Layer_1">
    <rect class="st0" width="1000" height="1000"/>
    <path d="M574.7,145.9h0,0M574.6,146c0,0,.2,0,.3,0,1.2.3,1.6.4,2.7,2,1.5,2.2,3.3,4.3,5.1,6.1l178.7,267.8c11.6,18.1,17.3,37.1,17.3,58v125.6c0,19.8,12.6,37.3,31.4,43.6l140.7,47.2c.4.1.9.3,1.3.4.3.1.5.4,1,1,.8,1.1.8,1.4.8,2.1v149.6c0,.2-.2.7-.5,1.3-.2.3-.3.7-.4,1-.4.9-.7,1.5-1.1,1.9-.4,0-.9,0-1.6,0s-.4,0-.6,0c-.5-.1-.9-.2-1.4-.3l-278.3-72.4c-19.2-5.7-36-14.8-51.3-27.9-15.3-13-26.8-28.3-35.3-46.6-8.5-18.4-12.6-37.1-12.6-57.1v-199.9c0-.8,0-1.2.1-1.4,0-.1.3-.4.7-.8,1.3-1.2,1.6-1.4,3.6-1.4s1.8.2,1.8.2,0,0,0,0c0,0,.3.2.9.8.6.6.8.9.8.9h0s.2.5.2,1.8v125.6c0,19.6,7.8,37.7,22.1,51.1,13.7,12.9,30.8,19.7,49.5,19.7s36.8-7.3,50.1-20.7c13.3-13.3,20.7-31.1,20.7-50.1v-120c0-36.7-9.5-70.6-28.4-100.8l-121.3-201.8c-.7-1.3-.8-1.7-.4-3.3.3-1.3.4-1.5,1.8-2.4.9-.5,1.4-.7,1.6-.8M426,146h0,0M425.9,146c.2,0,.7.2,1.5.7,1,.6,1.5.9,2.1,3.3,0,.1,0,.2,0,.3,0,0,0,0,0,.1-.3.4-.5.8-.7,1.2l-121.6,203.1c0,.1-.1.2-.2.3-18.5,31.5-27.9,65.2-27.9,100.1v120c0,19.6,7.8,37.7,22.1,51.1,13.7,12.9,30.8,19.7,49.5,19.7s36.8-7.3,50.1-20.7c13.3-13.3,20.7-31.1,20.7-50.1v-125.6c0-.8,0-1.2.1-1.4,0-.1.3-.4.7-.8,1.5-1.4,1.7-1.4,2.8-1.4,2,0,2.3.2,3.6,1.4.4.4.6.7.7.8,0,.2.1.6.1,1.4v199.9c0,20.1-4.1,38.8-12.6,57.1-8.5,18.4-20,33.6-35.3,46.6-15.3,13-32.1,22.2-51.3,27.9l-277.9,72.3c-1.2.2-2,.4-2.5.4-.9,0-1.4-.1-1.7-.2,0,0,0,0-.1-.1-1.7-2.5-1.7-3.6-1.7-4v-149.5c0-.1.3-.9,1.3-2.3,1-1.3,1.6-1.9,1.8-2.1l140.3-46.3c18.9-6.2,31.6-23.8,31.6-43.7v-125.6c0-20.9,5.7-39.8,17.3-58l178.8-267.8c1.9-1.9,3.6-3.9,5.1-6.1,1.1-1.6,1.5-1.7,2.7-2,.2,0,.4,0,.5,0M571,448h0,0M421.5,448.1h0,0M49.6,695.5h0,0M574.5,99.9c-8.8,0-17.3,2.5-25.6,7.7-11.7,7.2-19.2,17.5-22.4,30.8-3.2,13.3-1.3,25.9,5.6,37.6l121.6,202.3c14.4,23,21.6,48.5,21.6,76.8v120c0,6.9-2.4,12.8-7.2,17.6-4.8,4.8-10.7,7.2-17.6,7.2s-12.9-2.4-18-7.2c-5.1-4.8-7.6-10.7-7.6-17.6v-125.6c0-13.9-4.8-25.6-14.4-35.2s-21.3-14.4-35.2-14.4-25.7,4.8-35.6,14.4c-9.9,9.6-14.8,21.3-14.8,35.2v199.9c0,26.7,5.6,52.1,16.8,76.4,11.2,24.3,26.9,45.1,47.2,62.4,20.3,17.3,43.2,29.7,68.8,37.2l279.9,72.8c5.3,1.1,1.6,1.6,12.8,1.6s20.8-2.9,28.8-8.8c6.9-5.3,12.3-12.3,16-20.8,3.2-6.9,4.8-13.6,4.8-20v-150.3c0-10.7-3.2-20.4-9.6-29.2-6.4-8.8-14.7-14.8-24.8-18h-.1l-140.7-47.2v-125.6c0-29.9-8.3-57.6-24.8-83.2l-183.1-274.3c-.5-.5-1.1-.8-1.6-.8-7.5-10.7-17.5-17.5-30-20.4-3.6-.8-7.2-1.3-10.8-1.3h0ZM426,100c-3.6,0-7.3.4-11,1.3-12.5,2.9-22.5,9.7-30,20.4-.5,0-1.1.3-1.6.8l-183.2,274.3c-16.5,25.6-24.8,53.3-24.8,83.2v125.6l-140.7,46.4c-9.6,3.2-17.7,9.5-24.4,18.8-6.7,9.3-10,19.1-10,29.2v149.5c0,11.2,3.7,21.9,11.2,32,9.6,12.3,22.7,18.4,39.2,18.4s6.7-.5,12-1.6l279.9-72.8c25.6-7.5,48.5-19.9,68.8-37.2s36-38.1,47.2-62.4c11.2-24.3,16.8-49.7,16.8-76.4v-199.9c0-13.9-4.9-25.6-14.8-35.2-9.9-9.6-21.7-14.4-35.6-14.4s-24.9,4.8-34.8,14.4c-9.9,9.6-14.8,21.3-14.8,35.2v125.6c0,6.9-2.4,12.8-7.2,17.6s-10.7,7.2-17.6,7.2-12.9-2.4-18-7.2c-5.1-4.8-7.6-10.7-7.6-17.6v-120c0-26.7,7.2-52.3,21.6-76.8l121.6-203.1c7.5-11.7,9.3-24.3,5.6-37.6-3.7-13.3-11.3-23.5-22.8-30.4-8.1-4.9-16.4-7.3-25-7.3h0Z"/>
  </g>
</svg>