<?xml version="1.0" encoding="UTF-8"?>
<svg xmlns="http://www.w3.org/2000/svg" version="1.1" viewBox="0 0 1000 1000">
  <defs>
    <style>
      .cls-1 {
        fill: none;
      }
    </style>
  </defs>
  <!-- Generator: Adobe Illustrator 28.6.0, SVG Export Plug-In . SVG Version: 1.2.0 Build 709)  -->
  <g>
    <g id="Layer_1">
      <rect class="cls-1" width="1000" height="1000"/>
      <path d="M253.3,610.6c5.4,14.5,14.1,27.7,25.7,38.7h0c19.4,18.4,44.9,28.5,71.6,28.5s31.3-3.6,45.2-10.4c-1.5,8.8-4.2,17.2-8.1,25.6-6.5,14.1-15.3,25.8-27,35.8-11.6,9.9-24.4,16.9-39,21.3l-243.4,63.3v-93.9l121.5-40.1c30.3-10,51.4-37.4,53.4-69M747,610.8c2.1,31.3,22.9,58.6,53,68.7l121.9,40.9v93.2l-243.4-63.3c-14.6-4.4-27.4-11.4-39-21.3-11.7-10-20.5-21.7-27-35.8-3.9-8.5-6.6-17.1-8.1-26,14.2,7,29.9,10.7,46.1,10.7,27.5,0,53.4-10.7,72.8-30,10.7-10.7,18.7-23.3,23.8-37.1M426,100c-3.6,0-7.3.4-11,1.3-12.5,2.9-22.5,9.7-30,20.4-.5,0-1.1.3-1.6.8l-183.1,274.3c-16.5,25.6-24.8,53.3-24.8,83.2v125.6l-140.7,46.4c-9.6,3.2-17.7,9.5-24.4,18.8-6.7,9.3-10,19.1-10,29.2v149.5c0,11.2,3.7,21.9,11.2,32,9.6,12.3,22.7,18.4,39.2,18.4s6.7-.5,12-1.6l279.9-72.8c25.6-7.5,48.5-19.9,68.8-37.2,20.3-17.3,36-38.1,47.2-62.4,11.2-24.3,16.8-49.7,16.8-76.4v-199.9c0-13.9-4.9-25.6-14.8-35.2-9.9-9.6-21.7-14.4-35.6-14.4s-24.9,4.8-34.8,14.4c-9.9,9.6-14.8,21.3-14.8,35.2v125.6c0,6.9-2.4,12.8-7.2,17.6-4.8,4.8-10.7,7.2-17.6,7.2s-12.9-2.4-18-7.2c-5.1-4.8-7.6-10.7-7.6-17.6v-120c0-26.6,7.2-52.2,21.6-76.8l121.6-203.1c7.5-11.7,9.3-24.3,5.6-37.6-3.7-13.3-11.3-23.5-22.8-30.4-8.1-4.9-16.4-7.3-25-7.3h0ZM574.6,100c-8.7,0-17.3,2.6-25.6,7.7-11.7,7.2-19.2,17.5-22.4,30.8-3.2,13.3-1.3,25.9,5.6,37.6l121.6,202.3c14.4,22.9,21.6,48.5,21.6,76.8v120c0,6.9-2.4,12.8-7.2,17.6-4.8,4.8-10.7,7.2-17.6,7.2s-12.9-2.4-18-7.2c-5.1-4.8-7.6-10.7-7.6-17.6v-125.6c0-13.9-4.8-25.6-14.4-35.2-9.6-9.6-21.3-14.4-35.2-14.4s-25.7,4.8-35.6,14.4c-9.9,9.6-14.8,21.3-14.8,35.2v199.9c0,26.7,5.6,52.1,16.8,76.4,11.2,24.3,26.9,45.1,47.2,62.4,20.3,17.3,43.2,29.7,68.8,37.2l279.9,72.8c5.3,1.1,9.6,1.6,12.8,1.6,11.2,0,20.8-2.9,28.8-8.8,6.9-5.3,12.3-12.3,16-20.8,3.2-6.9,4.8-13.6,4.8-20v-150.3c0-10.7-3.2-20.4-9.6-29.2-6.4-8.8-14.7-14.8-24.8-18l-140.7-47.2v-125.6c0-29.9-8.3-57.6-24.8-83.2l-183.1-274.3c-.5-.5-1.1-.8-1.6-.8-7.5-10.7-17.5-17.5-30-20.4-3.6-.8-7.2-1.3-10.8-1.3h0Z"/>
    </g>
  </g>
</svg>