<?xml version="1.0" encoding="UTF-8"?>
<svg id="Layer_1" xmlns="http://www.w3.org/2000/svg" version="1.1" viewBox="0 0 536.4 124.8">
  <!-- Generator: Adobe Illustrator 29.0.0, SVG Export Plug-In . SVG Version: 2.1.0 Build 186)  -->
  <defs>
    <style>
      .st0 {
        fill: #0082ff;
      }
    </style>
  </defs>
  <g>
    <path class="st0" d="M157.9,8.8c-7.2-5.9-17.7-8.8-31.7-8.8s-4,0-6.2.2c-2.2.1-4.4.3-6.6.6-2.2.3-4.4.7-6.5,1.1-2.1.4-4,.9-5.6,1.5-2.1.6-3.6,1.5-4.7,2.6-1.1,1.1-1.6,2.7-1.6,4.8v74.6c0,4.3.9,7.3,2.8,8.9,1.9,1.6,5.3,2.5,10.1,2.5s4.4-.1,6.5-.4c2.1-.3,3.6-.5,4.8-.8v-29.7h10.2c6.2,0,11.7-.8,16.5-2.3,4.9-1.5,9-3.7,12.4-6.6,3.4-2.9,6-6.3,7.8-10.4,1.8-4.1,2.7-8.5,2.7-13.5,0-10.3-3.6-18.3-10.8-24.2Z"/>
    <path class="st0" d="M214,19.5c-5.2,0-10.2.6-15,1.8-4.8,1.2-8.8,2.8-12.2,4.8-2.6,1.5-4.6,3.3-6,5.4-1.4,2.1-2.2,4.5-2.2,7.4v46.9c0,4.3,1,7.2,3.1,8.7,2.1,1.5,5.4,2.2,10,2.2s4.3-.1,6.2-.4c1.8-.3,3.3-.5,4.3-.8v-53.5c2.3-1.2,4.9-2.2,7.8-2.9,3-.7,5.9-1.1,8.9-1.1s6.3.3,8.6.8c.6-1,1.2-2.3,1.7-3.7.5-1.4.8-3,.8-4.8,0-7.2-5.3-10.8-16-10.8Z"/>
    <path class="st0" d="M294.5,26c-3.1-2.3-6.8-3.9-11.2-5-4.4-1.1-9.2-1.6-14.5-1.6s-7.7.3-11.6.8c-3.9.6-7.4,1.4-10.4,2.5-4.7,1.9-7.1,5.2-7.1,9.7s.4,3.8,1.3,5.5c.9,1.7,1.9,2.9,3.2,3.8,3-1.2,6.3-2.3,10.1-3.2,3.7-.9,7.6-1.4,11.5-1.4s8.9.8,11.5,2.3c2.7,1.5,4,4,4,7.2v1.7l-20.5,2.2c-8.7.9-15.2,3.2-19.4,6.9-4.2,3.7-6.3,9.1-6.3,16.2s3.1,14.5,9.4,18.5c6.3,4.1,14.7,6.1,25.2,6.1s11.1-.5,15.7-1.5c4.6-1,8.5-2.5,11.7-4.5,1.9-1.1,3.6-2.5,5-4.1,1.4-1.6,2.1-3.7,2.1-6.4v-34.8c0-4.7-.8-8.8-2.5-12.3-1.7-3.5-4.1-6.4-7.2-8.6Z"/>
    <path class="st0" d="M386.2,22.3c-2.4-1.4-5.2-2.2-8.5-2.2s-6.8.9-10,2.6c-.8,4.3-1.8,8.7-2.8,13.3-1.1,4.6-2.2,9.1-3.5,13.5-1.2,4.5-2.5,8.8-3.8,12.9-1.3,4.2-2.6,8-3.8,11.5h-.6c-2.4-7.4-4.7-14.7-7-22-2.3-7.3-4.6-14.7-6.8-22.2-1.1-3.7-2.7-6.2-4.8-7.6-2.1-1.4-4.7-2.1-8-2.1s-4.9.5-7.2,1.5c-2.2,1-3.9,2.1-5.2,3.5,3.3,13.1,6.4,23.8,9.5,32.1,3,8.3,5.7,15,8.1,20.1,2.3,4.9,4.3,8.3,6.2,10.1,1.9,1.8,3.7,3,5.5,3.5-2.5,3.9-5.5,7.8-9,11.6-3.5,3.8-7,7.2-10.2,10.1.5,3.6,2,6.5,4.5,8.8s5.6,3.5,9.4,3.5,9.4-2.4,14-7.2c4.6-4.8,9.8-12,15.5-21.8,2.8-4.6,5.5-10,8.1-16.1,2.6-6.1,5-12.3,7.1-18.5,2.1-6.2,3.8-12.2,5.1-17.8,1.3-5.7,1.9-10.4,1.9-14.1s-1.2-5.6-3.5-7.1Z"/>
    <path class="st0" d="M461.5,28.5c-3.1-2.9-6.9-5.1-11.2-6.7-4.4-1.6-9.2-2.4-14.4-2.4s-9.5.7-14.1,2.2c-4.6,1.5-8.6,3.8-12.2,7-3.5,3.2-6.4,7.2-8.5,12-2.1,4.8-3.2,10.5-3.2,17.1s1.1,12.7,3.2,17.7c2.1,5,5,9.2,8.7,12.5,3.7,3.3,8.1,5.8,13.2,7.5,5.1,1.7,10.7,2.5,16.8,2.5s7.9-.3,11.3-.8c3.4-.6,6.4-1.4,8.9-2.6,2.5-1.2,4.5-2.6,5.9-4.4,1.4-1.7,2.2-3.8,2.2-6.2s-.5-3.7-1.5-5.4c-1-1.6-2.3-3-3.8-4-2.4,1.4-5.4,2.7-9.2,3.9-3.8,1.2-7.8,1.8-12.2,1.8s-8.9-.9-12.5-2.7c-3.6-1.8-6.1-4.8-7.5-9.2l40-6c3.2-.5,5.6-1.6,7.4-3.2,1.7-1.6,2.6-4.1,2.6-7.4,0-4.7-.9-9.1-2.6-13.1-1.7-4-4.2-7.4-7.3-10.3Z"/>
    <path class="st0" d="M520.4,19.5c-5.2,0-10.2.6-15,1.8-4.8,1.2-8.8,2.8-12.2,4.8-2.6,1.5-4.6,3.3-6,5.4-1.4,2.1-2.2,4.5-2.2,7.4v46.9c0,4.3,1,7.2,3.1,8.7,2.1,1.5,5.4,2.2,10,2.2s4.3-.1,6.2-.4c1.8-.3,3.3-.5,4.3-.8v-53.5c2.3-1.2,4.9-2.2,7.8-2.9,3-.7,5.9-1.1,8.9-1.1s6.3.3,8.6.8c.6-1,1.2-2.3,1.7-3.7.5-1.4.8-3,.8-4.8,0-7.2-5.3-10.8-16-10.8Z"/>
  </g>
  <g>
    <circle class="st0" cx="38.7" cy="25.2" r="12.9"/>
    <circle class="st0" cx="38.7" cy="50.9" r="12.9"/>
    <circle class="st0" cx="38.7" cy="76.7" r="12.9"/>
    <circle class="st0" cx="64.4" cy="50.9" r="12.9"/>
    <circle class="st0" cx="12.9" cy="50.9" r="12.9"/>
  </g>
</svg>