<?xml version="1.0" encoding="UTF-8"?>
<svg id="Layer_1" xmlns="http://www.w3.org/2000/svg" version="1.1" viewBox="0 0 447 123.7">
  <!-- Generator: Adobe Illustrator 30.5.1, SVG Export Plug-In . SVG Version: 2.1.4 Build 3)  -->
  <defs>
    <style>
      .st0 {
        fill: #0082ff;
      }
    </style>
  </defs>
  <g>
    <path class="st0" d="M147.7,30c21.7,0,34.7,10.8,34.7,27.6s-11.1,23.1-31.7,23.1h-6.8c-1.4,0-2.1.2-2.1,2.1v1c0,12.6,6.9,9.5,6.9,15s-1.4,3.3-6.1,3.3h-18.8c-4.4,0-6.1-.8-6.1-3.3,0-5.6,7.1-2.5,7.1-15v-34.6c0-14.2-7.1-9.7-7.1-15.9s1.6-3.3,6.1-3.3h23.9ZM165.3,59c0-14.5-9-22.1-17.8-22.1s-5.7.6-5.7,2.8v30.4c0,2.6,2.1,3.5,7.9,3.5,9.9,0,15.5-5.6,15.5-14.5Z"/>
    <path class="st0" d="M230.1,61.4c0,4.7-2.4,7.6-5.5,7.6-5.5,0-5.1-5.8-10.3-5.8s-6.2,3.3-6.2,10v14.2c0,9.4,5,6.8,5,11.7s-1.7,2.9-4.7,2.9h-16.7c-3.1,0-4.9-.7-4.9-3,0-4.8,5.1-2.3,5.1-11.6v-19c0-2.6-1.5-4.1-3.2-5.6-.9-.7-2-1.5-2-3.2s.9-2.7,3.4-3.8c4-1.9,11.8-4.1,13.6-4.2,1.9,0,2.6,1.2,2.6,3.5v5c4.1-6.2,9.5-8.5,14-8.5s9.7,4,9.7,9.8Z"/>
    <path class="st0" d="M290.3,95.4c0,3.9-6.5,7.5-11.5,7.5s-7.7-2.2-9.6-7.4c-5.3,5.4-12.1,7.4-18.3,7.4-10.9,0-18.4-6.3-18.4-14.8s8.5-17.1,24.2-17.1,3.5.2,6.8.5c-1.8-5.6-4.2-10.3-11.2-10.3s-8.4,2-11.8,3.8c-2,1.2-4.4-.3-2.8-3.2,2.7-4.6,10.7-10.2,20.8-10.2s17.7,10,20.2,18.3l5.3,17.9c1,3.6,2.2,5.7,4.6,5.6,1.1-.1,1.9.7,1.9,2ZM267.1,87.3c-.2-1.4-1.1-4-2.2-7.1-.8-2.4-3.4-3.4-6.8-3.4-6.5,0-10.5,3.4-10.5,8.4s4.1,9.5,10.3,9.5,10-3.4,9.2-7.4Z"/>
    <path class="st0" d="M343.2,59.8c0,13.9-10.9,35-15.4,42.1-7.9,12.5-17.6,21.7-30.6,21.7s-12.9-4.6-12.9-10.4,3.5-8.9,7.1-8.9,4.6,1.6,5.8,4.5c1.3,3.4,2,6.4,6.5,6.4s6.3-2.8,6.9-6.6c.5-2.8.2-5.3-.7-9.5-2-9.7-5.8-21.4-10-31.3-1.9-4.1-3.1-4.5-6-4.8-2-.1-2.8-1.3-2.8-2.3,0-3.8,10.7-9.3,15.4-9.3s4.3,2.1,5.1,4.3c5.1,12.8,8.8,24.8,12.1,38.5,4-6.8,7.5-14.5,7.5-21.7s-4.2-8.6-4.2-13.2,4.8-8.2,8.7-8.2,7.3,4.5,7.3,8.5Z"/>
    <path class="st0" d="M398.2,88c-2,6.1-10.8,15-24.9,15s-24.7-10-24.7-24.3,13-27.2,26.9-27.2,19.9,7.9,21.1,16.7c.2,1.5-.6,3.1-2.4,3.9-10.2,4.9-17.3,7.9-27.4,11.8,2.2,4,6.4,7.6,13.6,7.6s10.7-3.1,14.4-6.6c2.3-2.2,4.4-.2,3.4,3ZM363.5,70.8c0,2.2.4,4.9.9,6.6,4.7-1.6,9.6-3.4,14.1-5.6,1.8-.8,3.5-1.4,2.6-4.5-1.6-5.8-6.2-9.2-10.8-7.9-4.3,1-6.8,5.4-6.8,11.4Z"/>
    <path class="st0" d="M447,61.4c0,4.7-2.4,7.6-5.5,7.6-5.5,0-5.1-5.8-10.3-5.8s-6.2,3.3-6.2,10v14.2c0,9.4,5,6.8,5,11.7s-1.8,2.9-4.7,2.9h-16.7c-3.1,0-4.9-.7-4.9-3,0-4.8,5.1-2.3,5.1-11.6v-19c0-2.6-1.5-4.1-3.2-5.6-.9-.7-2-1.5-2-3.2s.9-2.7,3.4-3.8c4-1.9,11.8-4.1,13.6-4.2,1.9,0,2.6,1.2,2.6,3.5v5c4.1-6.2,9.5-8.5,14-8.5s9.7,4,9.7,9.8Z"/>
  </g>
  <path class="st0" d="M81.9,59.1c25.3-39.1,8.3-54.6-20.1-16.4.7-62.9-29.5-51.8-25.7,3.9-47.4-26.8-46.4,5.6-7.4,25.8-48,42-21.9,59.9,19.2,17.3,20,39.4,58.6,47.1,27.3-5.2,35.3.9,43.7-20.2,6.8-25.4ZM68.8,64.3l-.2,1.5c-.3,2-.9,2.6-3,2.6h-10v10.5c0,2-.5,2.6-2.6,2.6h-1.6c-2,0-2.6-.5-2.6-2.6v-10.5h-10.9c-2,0-2.5-.5-2.2-2.6l.2-1.5c.3-2,.9-2.6,3-2.6h10v-10.5c0-2,.5-2.6,2.6-2.6h1.6c2,0,2.6.5,2.6,2.6v10.5h11c2,0,2.5.5,2.1,2.6Z"/>
</svg>