<?xml version="1.0" encoding="UTF-8"?>
<svg id="Layer_1" xmlns="http://www.w3.org/2000/svg" version="1.1" viewBox="0 0 1000 1000">
  <!-- Generator: Adobe Illustrator 30.3.0, SVG Export Plug-In . SVG Version: 2.1.3 Build 182)  -->
  <defs>
    <style>
      .st0 {
        fill: #0082ff;
      }
    </style>
  </defs>
  <path class="st0" d="M731.1,487.1c201.8-312.4,66.5-435.8-160.1-131.1,5.5-501.8-235.2-413-205,31.5C-12.5,173.6-4.4,431.8,306.7,593.1c-382.9,335-175,478.4,152.9,137.9,159.4,314.2,467.8,375.7,217.5-41.5,281.9,7.3,348.6-161.1,54-202.4ZM626.7,528.8l-1.4,12.2c-2.7,16.3-7.5,20.4-23.8,20.4h-79.5v83.6c0,16.3-4.1,20.4-20.4,20.4h-12.9c-16.3,0-20.4-4.1-20.4-20.4v-83.6h-87c-16.3,0-19.7-4.1-17.7-20.4l1.4-12.2c2.7-16.3,7.5-20.4,23.8-20.4h79.5v-83.6c0-16.3,4.1-20.4,20.4-20.4h12.9c16.3,0,20.4,4.1,20.4,20.4v83.6h87.7c16.3,0,19.7,4.1,17,20.4Z"/>
</svg>