<?xml version="1.0" encoding="UTF-8"?>
<svg id="Layer_1" xmlns="http://www.w3.org/2000/svg" version="1.1" viewBox="0 0 384 110.5">
  <!-- Generator: Adobe Illustrator 30.3.0, SVG Export Plug-In . SVG Version: 2.1.3 Build 182)  -->
  <defs>
    <style>
      .st0 {
        fill: #0b1b29;
      }
    </style>
  </defs>
  <path class="st0" d="M72.5,53.5c21.9-34,7.2-47.4-17.4-14.3.4-56.2-25.4-46.3-22.3,3.4-41.1-23.3-40.2,4.8-6.4,22.3-43.5,38.7-21.4,53.9,16.6,15,17.3,34.1,50.8,40.8,23.6-4.5,30.6.8,37.9-17.5,5.9-22ZM61.5,58.1c-.1,2.2-.5,4.1-3.1,3.9,0,0-8.3,0-8.3,0v8.7c.2,2.8-1.8,2.7-4,2.6-2,0-2.6-.6-2.6-2.6v-8.7h-9.1c-1.9.1-2.7-.8-2.3-2.7.1-2.2.5-4.1,3.1-3.9,0,0,8.3,0,8.3,0v-8.7c-.2-2.8,1.8-2.7,4-2.6,2,0,2.6.6,2.6,2.6v8.7h9.1c1.9-.1,2.7.8,2.2,2.7Z"/>
  <g>
    <path class="st0" d="M123,27.7c18.9,0,30.1,9.4,30.1,24s-9.7,20-27.5,20h-5.9c-1.3,0-1.8.2-1.8,1.8v.9c0,10.9,6,8.2,6,13.1s-1.3,2.9-5.3,2.9h-16.4c-3.8,0-5.3-.7-5.3-2.9,0-4.8,6.2-2.1,6.2-13.1v-30c0-12.3-6.2-8.4-6.2-13.8s1.4-2.9,5.3-2.9h20.7ZM138.3,52.9c0-12.6-7.8-19.2-15.5-19.2s-4.9.5-4.9,2.4v26.4c0,2.2,1.8,3,6.9,3,8.6,0,13.5-4.8,13.5-12.6Z"/>
    <path class="st0" d="M194.5,54.9c0,4.1-2.1,6.6-4.7,6.6-4.7,0-4.5-5-8.9-5s-5.4,2.9-5.4,8.7v12.3c0,8.1,4.4,5.9,4.4,10.2s-1.5,2.5-4.1,2.5h-14.5c-2.7,0-4.3-.6-4.3-2.6,0-4.2,4.5-2,4.5-10.1v-16.5c0-2.2-1.3-3.6-2.8-4.8-.8-.6-1.7-1.3-1.7-2.8s.8-2.3,3-3.3c3.5-1.6,10.3-3.6,11.8-3.7,1.6,0,2.2,1.1,2.2,3v4.4c3.6-5.4,8.2-7.4,12.2-7.4s8.4,3.5,8.4,8.5Z"/>
    <path class="st0" d="M246.8,84.4c0,3.4-5.6,6.5-10,6.5s-6.7-1.9-8.3-6.4c-4.6,4.7-10.6,6.4-15.9,6.4-9.5,0-16-5.5-16-12.9s7.4-14.8,21-14.8,3,.2,5.9.4c-1.5-4.8-3.7-8.9-9.7-8.9s-7.3,1.7-10.3,3.3c-1.7,1.1-3.8-.3-2.4-2.8,2.3-4,9.3-8.9,18.1-8.9s15.4,8.7,17.5,15.9l4.6,15.6c.9,3.1,1.9,4.9,4,4.8,1,0,1.6.6,1.6,1.7ZM226.7,77.5c-.2-1.3-1-3.5-1.9-6.2-.7-2.1-3-3-5.9-3-5.6,0-9.1,3-9.1,7.3s3.6,8.2,8.9,8.2,8.7-3,8-6.4Z"/>
    <path class="st0" d="M292.8,53.6c0,12.1-9.5,30.4-13.4,36.6-6.9,10.8-15.3,18.9-26.6,18.9s-11.2-4-11.2-9,3-7.7,6.2-7.7,4,1.4,5,3.9c1.2,3,1.7,5.5,5.6,5.5s5.5-2.4,6-5.7c.4-2.4.2-4.6-.6-8.2-1.7-8.4-5-18.6-8.7-27.2-1.6-3.6-2.7-3.9-5.2-4.2-1.7,0-2.4-1.2-2.4-2,0-3.3,9.3-8,13.4-8s3.8,1.8,4.5,3.8c4.5,11.1,7.6,21.6,10.6,33.4,3.5-5.9,6.5-12.6,6.5-18.9s-3.7-7.5-3.7-11.4,4.2-7.2,7.6-7.2,6.3,3.9,6.3,7.4Z"/>
    <path class="st0" d="M340.5,78.1c-1.7,5.3-9.4,13.1-21.6,13.1s-21.5-8.7-21.5-21.1,11.3-23.6,23.3-23.6,17.3,6.9,18.3,14.5c.2,1.3-.5,2.7-2.1,3.4-8.9,4.3-15,6.9-23.8,10.3,1.9,3.5,5.5,6.6,11.8,6.6s9.3-2.7,12.5-5.7c2-1.9,3.8-.2,3,2.6ZM310.4,63.1c0,1.9.4,4.3.8,5.7,4.1-1.4,8.3-3,12.3-4.8,1.5-.7,3-1.3,2.2-3.9-1.4-5-5.4-8-9.4-6.9-3.8.9-5.9,4.7-5.9,9.9Z"/>
    <path class="st0" d="M382.9,54.9c0,4.1-2.1,6.6-4.7,6.6-4.7,0-4.5-5-8.9-5s-5.4,2.9-5.4,8.7v12.3c0,8.1,4.4,5.9,4.4,10.2s-1.5,2.5-4.1,2.5h-14.5c-2.7,0-4.3-.6-4.3-2.6,0-4.2,4.5-2,4.5-10.1v-16.5c0-2.2-1.3-3.6-2.8-4.8-.8-.6-1.7-1.3-1.7-2.8s.8-2.3,3-3.3c3.5-1.6,10.3-3.6,11.8-3.7,1.6,0,2.2,1.1,2.2,3v4.4c3.6-5.4,8.2-7.4,12.2-7.4s8.4,3.5,8.4,8.5Z"/>
  </g>
</svg>