<?xml version="1.0" encoding="UTF-8"?>
<svg id="Layer_1" xmlns="http://www.w3.org/2000/svg" version="1.1" viewBox="0 0 1000 1000">
  <!-- Generator: Adobe Illustrator 30.3.0, SVG Export Plug-In . SVG Version: 2.1.3 Build 182)  -->
  <path d="M730,491.2c199.7-309,65.8-431.1-158.3-129.7,4-511.4-230.9-421.6-202.8,31.2C-5.5,181.1,2.6,436.6,310.3,596.1c-395.6,352.5-194.6,490.2,151.2,136.3,157.5,310.8,462.7,371.7,215.1-41,278.9,7.3,344.9-159.3,53.4-200.2ZM630.3,533c-1.3,19.9-4.9,37.1-28.4,35.2,0,0-75.1,0-75.1,0v79.2c1.6,25.6-16.6,24.2-36.5,23.7-18.2,0-23.7-5.5-23.7-23.7v-79.2h-82.5c-16.9,1.1-24.2-7.6-21-24.2,1.3-19.9,4.8-37.2,28.4-35.4,0,0,75.1,0,75.1,0v-79.2c-1.6-25.6,16.6-24.2,36.5-23.7,18.2,0,23.7,5.5,23.7,23.7v79.2h83.2c17-1.1,24.2,7.7,20.3,24.3Z"/>
</svg>