<?xml version="1.0" encoding="UTF-8"?>
<svg id="Layer_1" xmlns="http://www.w3.org/2000/svg" version="1.1" viewBox="0 0 4849.6 1129.4">
  <!-- Generator: Adobe Illustrator 30.3.0, SVG Export Plug-In . SVG Version: 2.1.3 Build 182)  -->
  <defs>
    <style>
      .st0 {
        fill: #64809e;
      }
    </style>
  </defs>
  <path class="st0" d="M4837,717.6h-498.2c-.9,0-1.8,0-2.5,0-30.2-.5-56.3,6.9-81.7,22.3-6.1,3.7-15,5.9-22.1,5.8-5.3-9.9-8.7-19.6-10.4-30.2l-13.7-86.3c-4-25-10.4-48.8-20-71.8-10.8-25.9-32.6-42.5-60.8-45.7l-73.4-2.5c-40.7-1.4-79.6-5.9-117.3-20.4-24.8-9.5-47.6-20.9-67-39.7l114.2,38.3c34.6,11.6,119,32,121.6,2.5,1.2-14.4-28.9-25.1-20.2-51.3l21-62.9c5.9-17.9,12.9-35.1,13.6-54.3.8-24.1-7.8-46.4-22.3-65.8-27.6-36.9-63.5-66.5-104.9-86.5-34.8-16.8-72.7-17.4-106.6.2-45.3,23.5-79.9,58-86,110.3-4.6,39.2,1.1,77.6,16.1,113.8l6.6,21.2c-22.4-4.9-43.3-9.2-66.5-8.6-64.1,1.7-98.3,66.7-78.1,84.6,4.1,3.6,13.6,6.1,19.5,4.4l46.6-13.9c-9,9.4-16.7,18.8-27.7,24.7-22.5,12.1-48.8,15.5-74.3,13.6l-58-4.1c-12.6-.9-25.3,1.8-35.2,9.7-1.3-5.8-2.9-14.1-6-20.2-18.2-35-44.4-78.8-84.7-70.8l-49.2,9.7-4.3-14.8c9.1-6.7,18.7-15,26.5-24.4,21.7-26.7,48.2-64.4,44.4-96.6,6.7-16.1,18.2-32.1,19.9-50.8,2.7-30.7,2.8-60.6.3-91.6-.9-11.3-10.1-21.9-12.9-32.4-3-11.2-4.9-21.7-10.4-31.9-11.2-20.8-26.2-38.7-46.9-51.4-41.5-25.5-90.1-40.3-139.1-38-11.6.5-21.1,3-30.2-4.3h-17.9c-14.2,4.2-28.5,7.8-42.4,15.6-43.3,24.4-83.6,53.9-116.4,90.9-16,18-22.1,40.6-16.9,63.6-6,11-9.9,22.7-10.1,36-.7,52,15.2,141.5,62.6,162.7,7.2,3.2,11.9,5.7,17.6,10.9,27.6,25.4,62.6,39.2,99.9,44.1l93.7,4.4c19.9.9,38.4.6,59.1,4.3-46.2,30.1-117.2,10.2-170-5.6l-49.3-14.7c-37.9-11.3-77.7-2.1-107.8,23.7l-47.3,40.6c-23.7,20.4-47.5,65.8-31.5,75.3,3.1,1.8,9.6,1.4,13.3-1.2,13.3-9.5,25.8-17.2,40.4-23.8l59.4-26.6c12.7-5.7,27.3-6.2,40.1-.5l57.6,25.9-74.1,40.1-43.3,18.6c-18.8,8.1-38,3.9-56.3-4.8l-46-21.7c-26-8.7-52.4-12.6-79.6-14.8l-51-4.2,23.9-3.8c4.7-.8,11.1-3.7,13.4-7.3,2.6-4.1,3.2-12.2.8-17-14.2-28.2-33.8-50.7-61.1-64.6l-24.3-72.3-37-124.8c-7-23.5-15.4-45.2-29.5-64.2-26.7-36-68-51.3-111.6-43.1-49.5,9.4-88.5,39-109.6,85.1-19.6,43-27.9,89.3-26.4,137.2l2.2,72c.6,18.4-2.4,35.9-9.6,52.6-5.5,12.6-2.4,25.7,9.2,34.1,28.8,21,75.1,25.6,112.2,24.7l55.4-1.4-50.9,66.3c-8.2,10.6-14.5,21.7-14.6,37.2-32.2-16.4-60.9-39.5-87.4-65.6-11.6-11.4-26.8-14.5-42.7-12,9.7-7.6,19.9-16.2,21.3-28.9,4.3-41.2-110-62.2-178.6,22.9-9.2,11.4-13.2,26.2-7.6,39.2,5.2,12,15.8,18.1,25.9,27.2-36-12-70.8-2-95.4,25l-30.7,39.2c-23.7,30.3-41.7,62.4-88.8,47.3-69.5-22.3-127.4-77.2-169.3-137.7,20.3-7.1,36.1-16.6,53.8-25.9l50.9-27c24.9-10.5,49.7-11.6,76.1-6.3l78.3,15.8c20.7,4.2,52.7,7.1,58.9-5.4,6.3-12.7-10.6-25.9-26.6-35.5-44.7-26.9-94.8-40.5-146.3-44.2,7.6-2.6,14.5-4.8,18.7-8.4,5.8-5.1,6.6-13.5,6-21.1l-1.6-18.8c20.8-15.5,29-47.2,29.3-73.2.1-9.9-6-17.2-14.2-21.8,9.6-34.9,2.4-69.7-22.9-95.4-27.4-27.7-61.3-48.1-99.2-58.3-40.2-10.8-75.6,10.6-103.3,39.8-29.5,31-31.8,66.2-22.1,107.4-14.5,15.8-17.4,36.4-15.3,57,2.7,26.1,18.7,45.5,45,51.3,7,7.3,11.5,18.8,15.2,29.1-17.2,13-44.2,30.5-45.5,50.8-23.5-11.8-51.5-18.4-77-9-25.8,9.5-47.5,28.2-64.2,49.2-12.2,15.3-11.2,34.6-.2,49.7,12.5,17.1,29.4,28.3,48.3,37.8l21,10.6c2.2,1.1,5,6.3,4.5,8.5-2,9.8-33.1,17.8-50.2,19.3l-95.1,8.7c-37.1,3.4-71.9,10.9-104.5,28.8-.6-1.6.5-8.5,2.8-9.5l40.6-18c52.4-23.3,53.2-73.8,79-95.1l41.7-34.5c4.1-3.4,7-12.1,5.8-16.9-4.9-19.4-71.2-27.7-100.3-28.3-50.1-1.2-96.1,24.5-121.3,67.2-11.7,19.9-26.3,34.8-46.9,45.5-38.6,20-77.8,35.5-119.6,50.8l-31.1-59.1c18.9,4.7,34.6,3.4,48.4-8.4,16-14.7,32.2-28.9,50.2-41.5,22.7-16,34.4-39.2,36.4-67.1,20-5.5,35.4-17.5,32.5-36.3l-3.7-24c8.7.4,16.2-4.9,18.2-13.9,3.8-17.1,5.4-34.4,5.9-52.5.2-7.8-5.1-15.2-10.3-19.7,18.9-43.1,10.4-79.3-21.4-113.1-32-34.1-78.4-47.5-123.5-33.6-46.9,14.5-100.1,56.5-104.8,107.1l-6.9,73.4c-2,21.1,3.4,40,11,59.3l7.3,18.4c-36.5-23.2-60.4-30.4-100.8-12.4-17.1,7.6-34.3,11.6-53.2,8.5l-68.6-11.1c-18.1-2.9-34.1-10.5-48.1-22,16.5-3.2,26.5-12.4,33.5-26.3,12.5-24.7,18.5-52,22-80,2.6-21,1.2-41.6-5.5-61.6-7.6-22.4-13.2-44.1-18.7-67.1-7.4-31.2-32.4-77.2-61.2-63.6-14.1-28.3-60.5-41.6-93.5-42.8-57-2.1-110.7,38.7-116.7,97.1-4,38.6,13.6,78.9,42,104.4,32,28.6,104.6,50,136.9,19-4.7,24.9-3,48.8,5.8,71.4-1.8,3.1-4.1,9.3-3.2,12.1l6.6,21.6c-48-21.2-107.8-54.3-154.9-56.8-29.1-1.5-54.5,15.1-63.8,42.3-10.4,30.3-7.2,76,22.4,91.3-80.1,14.4-113.1,65.3-141.5,130.3,0,0,0,0,0,.1-6.7,15.4-16,28.6-26.8,38-11.1,9.6-23.3,14.7-35.3,14.7H14.1c-5.5,0-10,4.5-10,10s4.5,10,10,10h500c32.1,0,62.8-24.6,80.2-64.1h0c23.4-54.2,51.4-101.7,114.7-116.8,76.9-18.4,158.3-2.2,223.2,42.5,6.5,4.5,11.2,9.3,15.9,16.2-24.7,3.6-46.4,9.7-64.6,26.2-39,35.6-52.4,89.2-37.6,140.3,32.1,110.5,133.6,158.7,230.7,196.7l-37.9-2.4c-15.6-1-28.4,9.9-31.7,24.9l-10.8,49.3c-8.2,37.1-25.6,80.1,12.2,93.3,15.3,5.3,31.8,8.4,48.5,9.6,36.6,2.8,71,4.8,108.2,4.4l355.2-4,45.1-4c12.5-1.1,21.1-11.9,22-24.3l9-114.3c2.1-26.3,2.4-62.2-11.4-79.5,31.9-20.4,66.8-39.5,85.7-73.5,13,54.4,23.5,106.8,39.3,159.1,11.8,39.1,38.5,68.6,75.1,85.2,44.5,20.1,105.7,27.9,155.9,31.9,68,5.3,134.8,6.6,203,4.2,14.4-.5,28-2.8,41.4-6.3,47-12.4,41.3-67.6,35.1-111.2l-9.2-64.4c-2-14.4,2.5-29.6,12.5-39.9,23.2-24.1,58.7-28.9,87.4-12.6l52.4,29.7c42,23.8,95.6,54.5,142.4,36.9,27.5-10.3,67.7-38.7,72.5-67.9l92.2,31.8,65.1,15.1c37.3,6,73.8.4,106.4-18.4l71.2-40.9c-13,23.1-20.2,47.5-20,74.9l.7,105.8,3.5,56c4.5,20.1,19.5,34.3,40.7,33.9l3.8,2.2h48l3.7-2.2c19.9-1.1,31.5-15.6,34.1-34.7l-3.1-57.4c11.8,39.6,24.3,70.7,67,82.9,20.7,5.9,41.5,8.3,63.1,8.6l69.1.9,2.1,2h122l2.1-1.9,61.2-.9,101.8-9.9c11.7-1.1,23-5.9,33.5-10.3,23.7-9.7,34.5-31.5,33.4-57.2l-5.3-123.7c-.9-20.1,1.4-39.6,6.9-58.1,8.5-28.7,42.6-17.2,72.5-4.1l87.4,38.5c27,11.9,53.8,21.1,82.5,27.5,35.3,7.8,70.1,3.2,101.9-13.8,22.4-12,43-24.9,62.7-41.5l137.8-115.6c19.8-16.6,31.3-38.4,34.8-63.7,5-36.3,3.7-110.7-24.1-122-8.5-3.5-18.8-3.1-27.2.9-19.4,9.4-35.9,21.5-53.4,34.6-42.6,31.7-85.2,61.1-132.8,84.7-61.8,30.6-119.9,40.4-179.7,2.4-31.4-20-64.6-30.8-102-32.6l-94.8-4.5c-42-2-158.2-11.8-160.7-48.1-1.3-18.6,21.3-32.8,39.6-30.6l46.2,5.5c38,4.5,71.6,7,83.1-32.3,3.2-10.7,10.5-18.6,22.6-17.7l53.9,3.9c30.1,2.2,59.8-.3,87.4-12.2,14.8-6.4,25.5-18,37.5-29.2,18.3-3.3,47.7,22.8,66.2,38.7,29.7,25.7,63.6,45.1,102.8,50.9,5.6.8,13.2-2.5,15.2-6.1,2.4-4.2,1.6-13.2-2.3-16.3l-22.4-18-87.4-58.4c-30.8-20.5-62.5-35.5-98.4-24.5l-39.1,11.9c19.6-61.6,79.7-54.9,135.1-39.4,63.4,69.4,135.4,90.1,227.3,92.8l69.8,2.1c21,.6,37.4,13.7,45.5,32.8,7.5,17.7,13.5,35.9,16.6,55.3l13.7,84.2c2.5,15.5,5.4,30.4,11.3,44.5,5.8,13.9,20.5,22.7,34.5,16.6l26.4-11.5c27.9-15.7,51-15.1,64.7-15.7.1,0,.3,0,.4,0h500c5.5,0,10-4.5,10-10s-4.5-10-10-10ZM3376.6,417.1l-68.3-1.7-75.7-4.3c-32.3-4.4-63.2-17-86.6-38.7,1.5-7.4.5-13.6-4.7-16.9-4.4-2.8-12.2-.8-17.9,2.4-13.9-5.9-24-20.7-30.1-35.3-15.1-35.8-25.3-86.7-18.5-124.6,7,1.2,13.5,0,16.3-4.9,2.6-7.3,0-14.1-7.7-17.5-6.3-16.8-.8-35.3,12.1-49.6,31.9-35.2,70.7-63.6,112.6-86.7,13.1-7.2,27.8-10.5,41.8-11.8-.5,5.8-.7,10.7,1,14.5,1.6,3.6,8.9,6.4,13.1,5.4,7.8-1.8,12.5-7.9,16.1-14.8,42.9-5.4,95.2,9.9,132.6,32.6,21.4,13,38,32.3,46.4,55.5-4.9,3.5-8.9,7.7-9,11.7-.1,3.6,3.8,10.6,7,11.8l10.8,4.3c2.6,5.3,8,14.5,8.4,20.9,1.9,29.4,2.3,56.8-.8,86-1.3,12.8-9.1,26.9-15.3,38-8-1-18.4-2.2-21,7-2.5,8.7,5,16.1,17.2,15.7-.9,9.3-3.4,18.8-8.1,27.3-14.5,26.4-45.4,74.4-71.6,73.7ZM3141.9,489.1c-23.8-10.9-45.1-5.6-67.2,4.4l-71.2,32.3c7.1-15.9,19.5-26.5,32.2-37.1l36.7-31c24.6-20.8,55.7-26.2,86.9-19.3l44.9,13.1c33.6,11.9,67.3,19,103.5,23.4l-95.6,46.3-70.3-32.2ZM2844.6,566.4l88.7,10c25.5,2.9,47.7,13.6,69.7,26,52.4,29.8,94.3,2.7,144.9-23.6l139.3-72.5c38.3-20,78.1-33,120.3-41.7l52.8-11c12-2.5,24.6,2,32.6,11.2,15.5,17.9,28.2,37.3,36.7,60.5l-72.8,7.2c-14.6,1.4-29.4-5-35.9-17.7l-18.4-35.7c-2.5-4.8-7.7-8.7-12.5-7.3-17.5,5.2,4.5,28.3-.2,53.3-2.1,11.3-10.9,22.5-19.9,29.6l-67.2,52.9-108.9,76.9-67.7,42.4c-21.2,13.3-45.1,15.7-70,10.9l-157.6-30.2c-18.9-3.6-37.4-3.5-55.5,1.8l-40.4,11.8c-20.1,5.9-40.9,9.4-62,3.1l-54.7-16.2c22.3-6.1,27.7-18.9,33.9-39.5,6-19.9,14-38,29.6-54.2,6.4,27.6,31.7,82.2,51.9,76.9,4-1.1,9.5-8.7,8.5-13.7l-7.3-34c-2.8-12.9-6.3-26.4-4.8-39.2,2.9-24.6,22.9-40.8,47.1-38ZM2825.6,482c13.7,12.1,23.7,25.3,33,41.3-25.6.8-46.4,10.1-68.3,21.7l-25.8,13.7c-6.7,3.6-15.2,1.3-20.4-2.9-17.2-14.2-36.4-19.6-59-21.9,13.2-19.5,25.7-37,43.2-50.8,28.4-22.4,68.3-21.8,97.2-1.2ZM2584.5,534.8c-29.2.8-77.5-4.9-97.3-25.3,10.2-22.8,14.2-44,13.4-68.1l-2.2-68c-1.8-55.7,11.3-128.5,49.9-168.3,26.3-27.1,64.1-40.8,101.8-37.3,24.5,2.3,43.9,16.5,58.9,35.2,15.2,18.8,22.1,41.4,29,64.9l32.7,111.2,23.1,68.5c-67.7-7.4-97.4,33-131.9,85l-77.3,2.2ZM2604.1,645.3l17.5-24.9,50-66.7c17.6.2,36.8,2.2,52.2,12.3,26,17,30.3,20.5,66.7,3.1-15.7,21.7-15.3,45.7-10.4,72.9l-13.8-38.4c-2.9-4.5-7.4-9.6-11.3-10.6-18.3-4.4-40.9,30.5-48.5,52.3l-10.9,31.2c-2.8,8-9.9,12.1-18.9,10.3-23.7-4.8-46.3-14.1-67.5-26-5.3-3-8.6-10.7-5.1-15.6ZM2311.7,612.6c-8.3-6.7-8.3-16.1-2.5-24.9,29.4-37.3,78.4-61.6,125.6-50.5,8.1,1.9,14.2,5.6,20.1,11.4-5.7,7-10.3,11.5-16.7,16.5l-46,31.8c-15.4,10.7-26.3,24.9-31,43.1-18.6-7.2-35-15.8-49.5-27.4ZM2364.6,665.8c-5.4-2.2-10-4.6-14.5-7.6,6.7-.5,11.6,1.9,14.5,7.6ZM2063.4,278.5c15.5,20.3,21.9,48.7,19.7,73.8-2.3,27.3-16.8,51.4-34.2,70.9-6,6.7-15.7,9.1-24.2,8.3l-61.3-5.8c-48.5-4.6-61.7-42.5-76.2-85.1,18.4-24.2,10-58.4,35.4-83.6,40-39.6,111.2-17.3,140.8,21.4ZM1930.6,217.3c17.9-12.2,38.4-14.8,59.4-9.1,18.2,6,35.7,13.4,51.1,25-21-8.7-39.9-16.9-62.5-17.3-54.3.7-87.8,31.7-97,83.8-6.6-36.5,20.2-62.7,49-82.4ZM1895.7,422.7c-26.4-7.4-30.4-35.1-23.6-62.1l21.2,44c15,24.7,38.7,38.2,67.6,41l61.7,6c45.5,4.4,68.7-49.9,82-92.5,5,20.1-3.1,39.4-12.3,55.8-11.3,6.8-17.4,17.8-13.9,31.8l.3,17.1-60.2.8c-30,.4-59.7-2.3-89.6,1l-11.3-25.2c-3.8-8.6-13.2-15.1-22-17.6ZM1952.6,483.5l76.5,2.2c-49.3,5.9-93.4,31.8-143,34.7,16.8-21.2,38.9-37.7,66.6-36.9ZM1916.2,537.1l57-17c19.8-5.9,38.8-12.3,59.9-14,65.2-5.4,131.8,10,187,46.8-74.9-2.2-127.5-40.7-197.3-9.2l-52.6,28.3c-17.7,9.5-32.6,18-52.7,24.4l-36.1-56.1c12.8.2,24.2.2,34.9-3ZM1787.6,636.4c-29-12.6-66.9-38.7-47.6-62.1,13.5-16.4,30.3-30.4,49.9-39.7,12.6-6,26.9-5,40.3-2.6,16,2.7,29.1,10.6,37.8,24.3l29.4,46c-23.4,7.3-43.3,15.2-63.1,26.4-10.2,6.9-17.9,15.5-18.5,30.4-6.4-10.3-16-17.3-28.1-22.6ZM1510.6,605c22.9-40.3,65.4-63.4,112.2-60.3,24.2,1.6,46.6,5.5,71.2,12.9l-35.6,29.6c-31.5,26.2-33.1,74.5-72.6,92.2l-48.1,21.6c-13.4-13.2-25.8-25.9-34.2-42.2l-13.7-26.5c6.8-7.7,15.1-17.1,20.9-27.3ZM1453.5,660.3c5.1-7.6,16.4-8.6,24.7-8.9,8.6,23.9,22.8,43.1,41.1,59l-39.5,27-25.7-53.3c-3-6.2-4.3-18.5-.7-23.8ZM1386,561.6l-42.6,34.2c-6.2,5-11.2,12.3-19.6,14.6-11.4,3-30.5-1.8-37.6-11.8-12.5-26.1-15.9-52.7-21.8-81.9l44.9,6.2c34,4.7,67.3,1.2,102-5.5-.8,18.1-10.6,32.4-25.2,44.1ZM1276.2,497c11.2-3.3,21.1-4.5,32.7-5.8,18.6-2,36.2-5.4,54.5-9.4,25.1-5.4,50-8.5,50,14.8-46.8,10.2-88.6,12.1-137.2.4ZM1238.8,397.2l5.8-63.9c2.1-22.9,12.3-42.1,28.8-57.6,49.8-46.8,117.9-61,165.3-10.2,22,23.5,34.3,51.1,21.9,81.5-8.8,21.5-12.4,43.3-16,66.3-3.1,20-4.8,40.3.4,60.1.7,2.8.3,9.4-1.4,11.1-2,2.1-6.7,4.2-10.2,5.4-7.4-34.9-38.6-35.2-71.8-28.1-19,4.1-37.1,7.9-56.5,9.7-15.5,1.4-28.8,4.4-44.7,9.1l-11.2-27.2c-7.6-18.4-12.1-35.8-10.2-56.2ZM1214.1,486.3c16.7,9.8,30.1,22.8,32.1,43.8,5.3,28.5,12.3,55.9,22.7,83,12.4,27.9,25.2,53.1,40.9,81.6l-92.4,28.3-19.9-71.3c-6.5-26.8-11.3-51.9-14.3-78.4-2.6-19.3-11.9-41.6-24.5-37.4-3.6,1.2-6.6,6.4-8.2,12.3-18.7-13.4-31.9-33.5-36.8-55.1,41.3-11.2,58.3-31.5,100.5-6.8ZM923.7,329.6c3.5-22.5,5.9-44.8,11.2-66.8,6.5-27.3,14.1-52.7,11.2-81.4-.7-7.3.1-16,1.9-23,18,14.1,25.7,33.1,30.5,53.5,5.2,21.9,10.6,42.7,17.9,63.9,6.5,18.9,7.8,38,5.1,57.8-3.6,26.6-16.9,87.2-35.7,84.9-33-4-47.7-53.1-42.2-89ZM913.4,260.1c-2.5,12.5-9.9,24.6-16.5,36.1-6.6,11.5-17.7,18.5-30.7,18.2-28-.7-56.6-7.2-79.7-25-27.3-21.1-44.8-58.5-40.3-93.6,6-47.6,50.6-79.2,96.5-77.2,21.7.9,40.5,6.6,59.2,15.8,13.2,6.5,19.9,19.1,20,34.4.2,30.5-2.5,60.9-8.6,91.3ZM742.2,486.1c-9.3-.9-20.9-3.9-25.2-12.4-8.5-16.7-8.3-36.3-3.7-54,5.6-21.7,25.4-34.5,48-32.2,40.5,4.1,99.5,33.7,140.4,53.1,15.4,7.3,27.3,10.2,34.4-4,17.2,21.6,38.9,37.4,66.5,43.2,30.3,6.4,60.2,10.6,90.7,14.7,6.2,29.5,22.6,52.9,45.8,70.7,7,5.3,14.5,9.1,24,10.9,3.8,28.7,8.8,57.5,16.6,86l18,65.4-46.2,9.3c-15.9,3.2-29.8,9.8-42.3,18.5,3.2-22.2-12.6-44.2-27.4-63l-54.7-69.2c-12.8-16.3-34.1-21-53.9-26.5,3.6-14-2.4-22.8-11.4-32.3-65.5-69.2-131.3-70.2-219.6-78.3ZM1071.1,921.3c-50.8-20.7-104-44.5-144.4-81.5-61.4-56.2-95.8-150.3-32.9-213.8,15.9-16,37.9-22.7,59.6-23.9,2.5,5.8,7.1,11.1,12,12.7l23.1,7.3c11.5,3.6,21.6,10.9,29.2,20.7l52.5,67.4,15.9,24.4c3.9,6,4,15.1,1.7,21.8l-20.2,60.2c-1.5,4.4,1.7,11.4,5.1,12.8,23,9.6,17.7-59,81.8-72.5l61.2-12.9,104.8-31,14.9-5.2,95.5-39.1c1.9,14,5.4,27.1,11.4,39l21.5,42.9c-3.7,4.4-7.2,9.7-6.6,13.3.7,4,5.8,7,10.9,10.1l-233.4,116.9c-26.4,13.2-51.9,23.7-79.3,32.9-28.5,9.5-56.7,8.7-84.4-2.6ZM1345.2,860.8l-50,28.6c-.7.2-2.9-4-1.9-4.6l4.3-2.6,46.1-23.3,1.5,1.9ZM1268.3,904.5l-37,18.1c-24.1,11.8-48.3,19.5-74.5,22.5,39.2-13.6,76.3-30.6,113.9-49.3,1.2,2.3-.2,7.7-2.4,8.7ZM1577,967.4l-9.9,127.8-44.7,4.8-351.4,4.2c-38.4.5-74.3-1.6-112.2-4.3-22.1-1.6-56.7-7.2-54.1-22.3l5.4-32.3,14.3-64.8c1.2-5.4,3.9-12.2,6.8-17,9.3-1,18.3-.8,27.3.5,80.9,12,142.5,0,214.8-40,12.3,41.5,65.4,39.9,106.6,34.4,46.8-7.8,91.1-21.5,136.6-35.2l43.5-13.1c2.3-.7,7.6.2,9.5,1.3,7.6,4.7,8.9,37.2,7.5,55.9ZM2177.4,1080.2l-34.9,4.8c-81,2.4-160.7,1-241-8.5-73.7-8.6-155.8-26-174.5-105.6l-48-204.1c-1.5-6.2-7.4-9.8-11-9.4-17.4,1.6-3.5,26.5-13.6,53.8-12,32.6-62.9,58.9-94.7,78.9l-42.2,12c-47.6,15.7-94.7,29.8-144.4,37-32.5,4.7-81.3,4.7-80.3-25.6,66.9-36.4,130.3-75.8,190.7-121.3,21.1-15.9,41.2-29.5,63.5-42.7,32.3-19,67-27.8,104.4-31.3l100.9-9.4c28.1-2.6,66.7-15.1,64.9-41.6,9.3,20.2,21,36.4,35.7,52.4,53.2,57.8,110.5,110.2,170.7,160.6l36.9,27.4c42.8,31.8,91.9,3.3,136.2-19.1-4.7,16.7-6.5,32.5-3.9,48.8l10,64c5.1,32.3,5.5,74.7-25.3,78.9ZM2181.4,873.7c-32.9,18.1-78,40.5-106.6,19.4l-40.4-29.8c-58.5-48.9-113.7-99.9-165.6-155.7-13.8-14.8-36.4-43.3-31.8-54.3,4.8-11.3,51.3-27.7,72-33.6l43.7,55.8c28.5,31.9,61.9,58,99.7,78.1,41.3,21.9,85.5,34,120.2-.4l30.7-37.3,28.7-37.1c18.6-24,52.2-32.4,79.2-17.9l46.8,25.2c17.2,9.2,28.6,29.5,22.3,50.2-3.6,11.8-13.4,20.9-23.2,27.8-56.6,40-114.7,76.2-175.6,109.6ZM2503.2,916.8c-39.3,16.6-89.6-10.9-126-32.1l-50.6-29.3c-14.8-8.5-30.7-12.2-48.7-14.8l72.7-47.3,30.4-23.5c25.6-19.8,27.2-53.4,9.4-81.2,10.8,7.2,18.1,18.2,22.8,29.9l13.9,34.1c9.5,23.3,24.8,42.1,44.9,57.2l58.1,35.8,23.5,14.5c17.2,10.6-22,44.4-50.3,56.4ZM3528.4,561.4c-9.2,6.7-22.9,7.1-34.2,5.8l-61.8-7.5c-20.6-2.5-41,4.3-54.2,19.2-18.3,20.7-14.2,49.1,8.3,64.6,15.1,10.4,32.3,16.9,50.9,20.9,36.5,7.8,72.7,12.1,110.2,13.9l94.6,4.5c33.5,1.6,63,11.3,91.1,29.3,75.3,48.1,147.9,27.9,222.2-13.2,42.1-23.3,80.3-50.3,118.8-79l42.8-27.9c2.2-1.4,8.5-2.2,10.9-1.5,14.7,3.8,17.6,67.8,13.9,98.7-2.7,22.6-13.1,41.3-30.5,55.9l-125.7,105.8c-21.4,18-43.5,32.8-67.8,46.1-28.7,15.7-60,19.6-91.8,12.2-26.5-6.2-51.3-14.7-76.3-25.7l-90.2-39.7c-35.8-15.7-77.9-26.1-94.1,11.2-6.5,14.9-10.4,31.6-10,48.5l2.4,103.9,2.1,48.1c.7,15.5-8.4,27.9-22.8,33.4-14.7,5.6-30.5,10-46.6,11.2l-88.7,6.9c-84.7,3-167.9,2.7-252.3-.6-17.7-.7-34.3-3.2-50.9-7.2-47.6-11.4-54.2-66.9-62.7-113.5l-21-114.9c-3.5-19-14-44.7-28.7-40.2-15.6,4.8-11.4,35.4-5.5,58.2,12.5,48.5,20.5,96.4,23.7,146.6l3.4,53.8c1.6,25.6-42.9,22.7-73.3,18.1-8-1.2-15.7-7.7-16.5-15.8l-3.6-38.2-1.1-97.9,3-49.8c4-25.4,18-44.9,37.1-61.1l12.2-10.3c2.6-2.2,4.1-9.9,2.7-13.3-6.7-16.2-49.3,9.1-70.9,21.7l-63.2,36.7c-47.6,27.6-100,20.3-152,4-43.4-13.7-86.3-27-127-46.5l-62.1-35.9c-54.1-31.3-49.2-86.2-81.5-120.8l-24.1-18.4c7.9-7.3,13.2-14.5,18.2-23.3,10.3-18.1,28.1-31,47.4-38.1,10.8-4,21.7-1,29.7,7,20.2,20,40.8,37.6,65.1,52.8,55.5,34.7,125.9,71,189.5,84.1,22.5,4.7,45,3.8,66.9-2.7l37.1-11.1c18.3-5.4,35.8-6.5,54.8-2.9l159.5,30.4c26,5,50.9.8,74.2-10.9l61.2-36.8,132.5-93.2,59-47.2c11.9-9.5,19.8-22.3,26.4-36.7,11.9,12.2,28.4,19.6,46.7,19.3,27.1-.5,53.3-3.7,81.6-8.6-1.4,4-4.5,14.1-9.1,17.5ZM3893.9,556.6c-25.4-8-48-25.4-67.9-45.5l67.9,45.5ZM3835.6,388c-14.7-35.1-20.6-72.4-15-110.3,6.5-44.4,41.9-76.6,81.9-93.9,24.2-10.5,50.4-10,75.1.6,42.3,18.3,78.7,48.3,105.7,85.4,16.4,22.6,22.1,49.5,12.6,75.3l-16.1,44c-12.2,33.5-26.5,68.1-.6,95.7-25.1.7-49-3.6-73.9-11.9l-86.3-28.5-74.2-24.3-9.2-32.2Z"/>
</svg>